<svg width="66" height="66" viewBox="0 0 66 66" fill="none" xmlns="http://www.w3.org/2000/svg">
<rect x="0.5" y="0.5" width="65" height="65" rx="32.5" stroke="#494949"/>
<path d="M45.4262 32.4242C45.4285 32.4242 45.4302 32.4242 45.4325 32.4242C45.5908 32.4242 45.7418 32.3578 45.8491 32.2415C45.958 32.1234 46.0119 31.9651 45.9978 31.805C45.4279 25.537 40.4657 20.5728 34.1975 20.0018C34.0386 19.9893 33.8786 20.041 33.7605 20.1505C33.6425 20.2595 33.5766 20.4133 33.5783 20.574C33.6771 28.904 34.7759 32.3079 45.4262 32.4242ZM45.4262 33.5753C34.7759 33.6917 33.6777 37.0956 33.5789 45.4256C33.5772 45.5862 33.643 45.74 33.7611 45.849C33.8667 45.9461 34.0046 46 34.1465 46C34.1635 46 34.1811 45.9994 34.1981 45.9977C40.4663 45.4267 45.4285 40.4631 45.9978 34.1946C46.0119 34.0345 45.9586 33.8761 45.8491 33.7581C45.7395 33.64 45.5868 33.5816 45.4262 33.5753ZM31.7644 20.0047C25.5161 20.5921 20.5698 25.5552 20.0028 31.8061C19.9886 31.9662 20.042 32.1245 20.1515 32.2426C20.2588 32.359 20.4103 32.4248 20.5681 32.4248C20.5704 32.4248 20.5726 32.4248 20.5749 32.4248C31.19 32.3028 32.286 28.9006 32.3859 20.5762C32.3876 20.4156 32.3212 20.2612 32.2031 20.1522C32.0839 20.0433 31.9245 19.9899 31.7644 20.0047ZM20.5743 33.5748C20.3978 33.5549 20.2593 33.6389 20.1509 33.757C20.042 33.875 19.988 34.0334 20.0022 34.1934C20.5692 40.4444 25.5161 45.4074 31.7644 45.9949C31.782 45.9966 31.8002 45.9972 31.8178 45.9972C31.9596 45.9972 32.097 45.9438 32.2026 45.8467C32.3206 45.7378 32.387 45.5834 32.3853 45.4228C32.2854 37.099 31.19 33.6968 20.5743 33.5748Z" fill="white"/>
</svg>
