<svg width="66" height="66" viewBox="0 0 66 66" fill="none" xmlns="http://www.w3.org/2000/svg">
<rect x="0.5" y="0.5" width="65" height="65" rx="32.5" stroke="#494949"/>
<path d="M35.9011 39.3441C37.4728 38.9755 38.8599 38.3759 40.1064 37.5733L40.0522 37.606C40.6264 37.2222 41 36.5713 41 35.8329C41 34.6629 40.0626 33.7145 38.906 33.7145C38.5048 33.7145 38.13 33.8288 37.8118 34.026L37.821 34.0201C36.4558 34.8962 34.7942 35.4153 33.0127 35.4153C31.2312 35.4153 29.5685 34.895 28.1675 33.998L28.2044 34.0201C27.8884 33.816 27.5033 33.6947 27.0894 33.6947C26.3491 33.6947 25.6988 34.0843 25.3263 34.671L25.3217 34.6792C25.3217 34.6792 25.3217 34.6792 25.3217 34.685C25.1199 35.0047 25 35.3943 25 35.8131C25 36.5631 25.3863 37.2211 25.9674 37.5967L25.9755 37.6013C27.1678 38.3724 28.5549 38.9708 30.0366 39.3196L30.1265 39.3371L26.1265 43.3791C25.7437 43.7606 25.5062 44.2902 25.5062 44.8769C25.5062 45.4474 25.731 45.9641 26.0943 46.3421L26.1289 46.3771C26.5048 46.7585 27.0248 46.9942 27.599 46.9942C28.1732 46.9942 28.6933 46.7585 29.0692 46.3771L33.0138 42.4062L36.9343 46.3794C37.3125 46.762 37.836 47 38.4137 47C39.569 47 40.5053 46.0528 40.5053 44.8839C40.5053 44.2995 40.2713 43.7711 39.8931 43.3873L35.9011 39.3441ZM33.0127 33.4509C36.9539 33.4474 40.1479 30.2138 40.1479 26.2254C40.1479 22.2348 36.9504 19 33.0058 19C29.0611 19 25.8636 22.2348 25.8636 26.2254V26.2324C25.8717 30.2208 29.0692 33.4509 33.0127 33.4509ZM33.0127 23.2345C34.6466 23.2345 35.9703 24.5736 35.9703 26.2266C35.9703 27.8796 34.6466 29.2187 33.0127 29.2187C31.3811 29.2187 30.0574 27.8819 30.0551 26.2313C30.0551 26.2301 30.0551 26.2301 30.0551 26.2289C30.0551 24.576 31.3788 23.2356 33.0127 23.2345Z" fill="white"/>
</svg>
