<svg width="66" height="66" viewBox="0 0 66 66" fill="none" xmlns="http://www.w3.org/2000/svg">
<rect x="0.5" y="0.5" width="65" height="65" rx="32.5" stroke="#494949"/>
<path d="M41.7104 24.6501C41.7104 24.6501 43.6528 23.9142 43.4903 25.7012C43.4368 26.437 42.9514 29.0128 42.5734 31.7983L41.2784 40.0506C41.2784 40.0506 41.1704 41.2595 40.1989 41.4698C39.2279 41.6797 37.7709 40.734 37.5009 40.5237C37.2849 40.3658 33.454 38.0004 32.105 36.8444C31.727 36.5287 31.295 35.8982 32.159 35.1624L37.8244 29.906C38.4719 29.2755 39.1194 27.8038 36.4214 29.5908L28.8666 34.5839C28.8666 34.5839 28.0031 35.1099 26.3846 34.6368L22.8766 33.5853C22.8766 33.5853 21.5817 32.7969 23.7941 32.0086C29.1906 29.5383 35.828 27.0155 41.7094 24.6501H41.7104Z" fill="white"/>
</svg>
