<svg width="112" height="32" viewBox="0 0 112 32" fill="none" xmlns="http://www.w3.org/2000/svg">
<path d="M16.466 8.63244C16.466 8.63244 18.131 7.98315 17.9917 9.55986C17.9459 10.2091 17.5297 12.4818 17.2057 14.9397L16.0958 22.2211C16.0958 22.2211 16.0032 23.2878 15.1705 23.4734C14.3382 23.6585 13.0894 22.8241 12.8579 22.6385C12.6728 22.4992 9.38913 20.4121 8.23287 19.3921C7.90887 19.1135 7.53859 18.5573 8.27915 17.908L13.1352 13.27C13.6902 12.7137 14.2452 11.4151 11.9327 12.9918L5.45705 17.3975C5.45705 17.3975 4.71692 17.8617 3.32965 17.4443L0.322836 16.5164C0.322836 16.5164 -0.787148 15.8208 1.10925 15.1253C5.73476 12.9456 11.424 10.7196 16.4652 8.63244H16.466Z" fill="#2FADE7"/>
<path d="M30.554 22C30.422 22 30.314 21.958 30.23 21.874C30.146 21.79 30.104 21.682 30.104 21.55V11.902H26.828C26.708 11.902 26.606 11.86 26.522 11.776C26.438 11.692 26.396 11.59 26.396 11.47V9.85C26.396 9.718 26.438 9.61 26.522 9.526C26.606 9.442 26.708 9.4 26.828 9.4H36.26C36.392 9.4 36.5 9.442 36.584 9.526C36.668 9.61 36.71 9.718 36.71 9.85V11.47C36.71 11.59 36.668 11.692 36.584 11.776C36.5 11.86 36.392 11.902 36.26 11.902H33.002V21.55C33.002 21.682 32.96 21.79 32.876 21.874C32.792 21.958 32.684 22 32.552 22H30.554ZM42.4194 22.18C41.0394 22.18 39.9414 21.796 39.1254 21.028C38.3214 20.26 37.8954 19.144 37.8474 17.68C37.8474 17.584 37.8474 17.458 37.8474 17.302C37.8474 17.134 37.8474 17.002 37.8474 16.906C37.8954 15.982 38.1054 15.19 38.4774 14.53C38.8494 13.858 39.3714 13.348 40.0434 13C40.7154 12.64 41.5014 12.46 42.4014 12.46C43.4094 12.46 44.2494 12.67 44.9214 13.09C45.6054 13.498 46.1154 14.062 46.4514 14.782C46.7994 15.49 46.9734 16.306 46.9734 17.23V17.644C46.9734 17.764 46.9254 17.866 46.8294 17.95C46.7454 18.034 46.6434 18.076 46.5234 18.076H40.6374C40.6374 18.088 40.6374 18.112 40.6374 18.148C40.6374 18.172 40.6374 18.196 40.6374 18.22C40.6494 18.604 40.7214 18.958 40.8534 19.282C40.9974 19.594 41.1954 19.846 41.4474 20.038C41.7114 20.23 42.0234 20.326 42.3834 20.326C42.6834 20.326 42.9294 20.284 43.1214 20.2C43.3134 20.116 43.4694 20.014 43.5894 19.894C43.7214 19.774 43.8174 19.672 43.8774 19.588C43.9854 19.468 44.0694 19.396 44.1294 19.372C44.2014 19.336 44.3094 19.318 44.4534 19.318H46.3254C46.4454 19.318 46.5414 19.354 46.6134 19.426C46.6974 19.486 46.7334 19.576 46.7214 19.696C46.7094 19.888 46.6074 20.128 46.4154 20.416C46.2354 20.692 45.9654 20.968 45.6054 21.244C45.2454 21.508 44.7954 21.73 44.2554 21.91C43.7274 22.09 43.1154 22.18 42.4194 22.18ZM40.6374 16.438H44.1654V16.402C44.1654 15.97 44.0934 15.598 43.9494 15.286C43.8174 14.962 43.6194 14.71 43.3554 14.53C43.0914 14.35 42.7734 14.26 42.4014 14.26C42.0294 14.26 41.7114 14.35 41.4474 14.53C41.1834 14.71 40.9794 14.962 40.8354 15.286C40.7034 15.598 40.6374 15.97 40.6374 16.402V16.438ZM48.5387 22C48.4187 22 48.3107 21.958 48.2147 21.874C48.1307 21.778 48.0887 21.67 48.0887 21.55V20.2C48.0887 19.936 48.2327 19.792 48.5207 19.768C48.8687 19.732 49.1387 19.57 49.3307 19.282C49.5347 18.982 49.6787 18.526 49.7627 17.914C49.8467 17.302 49.8887 16.516 49.8887 15.556V13.09C49.8887 12.958 49.9307 12.85 50.0147 12.766C50.0987 12.682 50.2067 12.64 50.3387 12.64H57.0527C57.1847 12.64 57.2927 12.682 57.3767 12.766C57.4607 12.85 57.5027 12.958 57.5027 13.09V21.55C57.5027 21.682 57.4607 21.79 57.3767 21.874C57.2927 21.958 57.1847 22 57.0527 22H55.2527C55.1327 22 55.0247 21.958 54.9287 21.874C54.8447 21.79 54.8027 21.682 54.8027 21.55V14.764H52.4627V15.862C52.4627 17.002 52.3967 17.968 52.2647 18.76C52.1447 19.552 51.9347 20.188 51.6347 20.668C51.3347 21.136 50.9327 21.478 50.4287 21.694C49.9247 21.898 49.2947 22 48.5387 22ZM64.0053 22.18C62.6253 22.18 61.5273 21.796 60.7113 21.028C59.9073 20.26 59.4813 19.144 59.4333 17.68C59.4333 17.584 59.4333 17.458 59.4333 17.302C59.4333 17.134 59.4333 17.002 59.4333 16.906C59.4813 15.982 59.6913 15.19 60.0633 14.53C60.4353 13.858 60.9573 13.348 61.6293 13C62.3013 12.64 63.0873 12.46 63.9873 12.46C64.9953 12.46 65.8353 12.67 66.5073 13.09C67.1913 13.498 67.7013 14.062 68.0373 14.782C68.3853 15.49 68.5593 16.306 68.5593 17.23V17.644C68.5593 17.764 68.5113 17.866 68.4153 17.95C68.3313 18.034 68.2293 18.076 68.1093 18.076H62.2233C62.2233 18.088 62.2233 18.112 62.2233 18.148C62.2233 18.172 62.2233 18.196 62.2233 18.22C62.2353 18.604 62.3073 18.958 62.4393 19.282C62.5833 19.594 62.7813 19.846 63.0333 20.038C63.2973 20.23 63.6093 20.326 63.9693 20.326C64.2693 20.326 64.5153 20.284 64.7073 20.2C64.8993 20.116 65.0553 20.014 65.1753 19.894C65.3073 19.774 65.4033 19.672 65.4633 19.588C65.5713 19.468 65.6553 19.396 65.7153 19.372C65.7873 19.336 65.8953 19.318 66.0393 19.318H67.9113C68.0313 19.318 68.1273 19.354 68.1993 19.426C68.2833 19.486 68.3193 19.576 68.3073 19.696C68.2953 19.888 68.1933 20.128 68.0013 20.416C67.8213 20.692 67.5513 20.968 67.1913 21.244C66.8313 21.508 66.3813 21.73 65.8413 21.91C65.3133 22.09 64.7013 22.18 64.0053 22.18ZM62.2233 16.438H65.7513V16.402C65.7513 15.97 65.6793 15.598 65.5353 15.286C65.4033 14.962 65.2053 14.71 64.9413 14.53C64.6773 14.35 64.3593 14.26 63.9873 14.26C63.6153 14.26 63.2973 14.35 63.0333 14.53C62.7693 14.71 62.5653 14.962 62.4213 15.286C62.2893 15.598 62.2233 15.97 62.2233 16.402V16.438ZM70.7906 22C70.6706 22 70.5686 21.958 70.4846 21.874C70.4006 21.79 70.3586 21.682 70.3586 21.55V13.09C70.3586 12.958 70.4006 12.85 70.4846 12.766C70.5686 12.682 70.6706 12.64 70.7906 12.64H76.6406C76.7726 12.64 76.8806 12.682 76.9646 12.766C77.0486 12.85 77.0906 12.958 77.0906 13.09V14.314C77.0906 14.446 77.0486 14.554 76.9646 14.638C76.8806 14.722 76.7726 14.764 76.6406 14.764H73.0406V21.55C73.0406 21.682 72.9986 21.79 72.9146 21.874C72.8306 21.958 72.7226 22 72.5906 22H70.7906ZM78.9473 25.42C78.8153 25.42 78.7073 25.378 78.6233 25.294C78.5393 25.21 78.4973 25.102 78.4973 24.97V13.09C78.4973 12.958 78.5393 12.85 78.6233 12.766C78.7073 12.682 78.8153 12.64 78.9473 12.64H80.6573C80.7893 12.64 80.8973 12.682 80.9813 12.766C81.0653 12.85 81.1073 12.958 81.1073 13.09V13.774C81.3953 13.39 81.7673 13.078 82.2233 12.838C82.6793 12.586 83.2493 12.46 83.9333 12.46C84.5573 12.46 85.0973 12.562 85.5533 12.766C86.0213 12.958 86.4113 13.24 86.7233 13.612C87.0473 13.972 87.2933 14.41 87.4613 14.926C87.6413 15.442 87.7433 16.024 87.7673 16.672C87.7793 16.9 87.7853 17.116 87.7853 17.32C87.7853 17.524 87.7793 17.746 87.7673 17.986C87.7553 18.598 87.6593 19.162 87.4793 19.678C87.3113 20.194 87.0653 20.638 86.7413 21.01C86.4173 21.382 86.0213 21.67 85.5533 21.874C85.0973 22.078 84.5573 22.18 83.9333 22.18C83.3213 22.18 82.7873 22.072 82.3313 21.856C81.8873 21.628 81.5213 21.322 81.2333 20.938V24.97C81.2333 25.102 81.1913 25.21 81.1073 25.294C81.0233 25.378 80.9213 25.42 80.8013 25.42H78.9473ZM83.1233 20.02C83.5793 20.02 83.9393 19.924 84.2033 19.732C84.4673 19.528 84.6533 19.264 84.7613 18.94C84.8813 18.616 84.9533 18.262 84.9773 17.878C85.0013 17.506 85.0013 17.134 84.9773 16.762C84.9533 16.378 84.8813 16.024 84.7613 15.7C84.6533 15.376 84.4673 15.118 84.2033 14.926C83.9393 14.722 83.5793 14.62 83.1233 14.62C82.6793 14.62 82.3193 14.722 82.0433 14.926C81.7673 15.13 81.5693 15.388 81.4493 15.7C81.3293 16.012 81.2573 16.348 81.2333 16.708C81.2213 16.924 81.2153 17.146 81.2153 17.374C81.2153 17.602 81.2213 17.83 81.2333 18.058C81.2453 18.394 81.3173 18.712 81.4493 19.012C81.5933 19.3 81.7973 19.54 82.0613 19.732C82.3373 19.924 82.6913 20.02 83.1233 20.02ZM92.4485 22.18C91.8125 22.18 91.2425 22.06 90.7385 21.82C90.2345 21.568 89.8325 21.232 89.5325 20.812C89.2325 20.392 89.0825 19.924 89.0825 19.408C89.0825 18.556 89.4245 17.884 90.1085 17.392C90.8045 16.9 91.7165 16.564 92.8445 16.384L95.2025 16.042V15.718C95.2025 15.25 95.0945 14.89 94.8785 14.638C94.6625 14.386 94.2845 14.26 93.7445 14.26C93.3485 14.26 93.0305 14.338 92.7905 14.494C92.5505 14.65 92.3645 14.854 92.2325 15.106C92.1365 15.262 91.9985 15.34 91.8185 15.34H90.1085C89.9765 15.34 89.8745 15.304 89.8025 15.232C89.7305 15.148 89.7005 15.052 89.7125 14.944C89.7125 14.74 89.7905 14.5 89.9465 14.224C90.1025 13.948 90.3425 13.678 90.6665 13.414C90.9905 13.138 91.4045 12.91 91.9085 12.73C92.4125 12.55 93.0305 12.46 93.7625 12.46C94.5185 12.46 95.1665 12.55 95.7065 12.73C96.2465 12.91 96.6785 13.162 97.0025 13.486C97.3265 13.81 97.5665 14.188 97.7225 14.62C97.8785 15.04 97.9565 15.496 97.9565 15.988V21.55C97.9565 21.682 97.9145 21.79 97.8305 21.874C97.7465 21.958 97.6385 22 97.5065 22H95.7425C95.6225 22 95.5205 21.958 95.4365 21.874C95.3525 21.79 95.3105 21.682 95.3105 21.55V20.884C95.1545 21.112 94.9445 21.328 94.6805 21.532C94.4165 21.724 94.0985 21.88 93.7265 22C93.3665 22.12 92.9405 22.18 92.4485 22.18ZM93.1685 20.308C93.5645 20.308 93.9185 20.224 94.2305 20.056C94.5425 19.888 94.7885 19.63 94.9685 19.282C95.1485 18.934 95.2385 18.496 95.2385 17.968V17.662L93.5645 17.932C92.9165 18.04 92.4425 18.202 92.1425 18.418C91.8425 18.634 91.6925 18.898 91.6925 19.21C91.6925 19.438 91.7585 19.636 91.8905 19.804C92.0345 19.972 92.2205 20.098 92.4485 20.182C92.6765 20.266 92.9165 20.308 93.1685 20.308ZM100.514 22C100.406 22 100.316 21.964 100.244 21.892C100.172 21.82 100.136 21.73 100.136 21.622V13C100.136 12.904 100.172 12.82 100.244 12.748C100.316 12.676 100.4 12.64 100.496 12.64H102.26C102.476 12.64 102.644 12.748 102.764 12.964L105.392 17.662L108.002 12.964C108.122 12.748 108.29 12.64 108.506 12.64H110.288C110.384 12.64 110.468 12.676 110.54 12.748C110.612 12.82 110.648 12.904 110.648 13V21.622C110.648 21.73 110.612 21.82 110.54 21.892C110.468 21.964 110.378 22 110.27 22H108.38C108.26 22 108.164 21.964 108.092 21.892C108.032 21.82 108.002 21.73 108.002 21.622V15.412L108.812 15.574L106.256 20.164C106.196 20.272 106.124 20.368 106.04 20.452C105.968 20.536 105.86 20.578 105.716 20.578H105.05C104.918 20.578 104.81 20.542 104.726 20.47C104.642 20.386 104.564 20.284 104.492 20.164L102.008 15.736L102.764 15.574V21.622C102.764 21.73 102.728 21.82 102.656 21.892C102.584 21.964 102.494 22 102.386 22H100.514Z" fill="#2FADE7"/>
</svg>
