<svg width="66" height="66" viewBox="0 0 66 66" fill="none" xmlns="http://www.w3.org/2000/svg">
<rect x="0.5" y="0.5" width="65" height="65" rx="32.5" stroke="#494949"/>
<path fill-rule="evenodd" clip-rule="evenodd" d="M43.1427 36.0147C43.1427 36.0147 45.2448 38.1098 45.7648 39.0792C45.775 39.0932 45.7829 39.1087 45.7882 39.1252C46.0001 39.4833 46.0521 39.764 45.9481 39.9713C45.7726 40.3137 45.1785 40.4856 44.977 40.5H41.2616C41.0029 40.5 40.4647 40.4318 39.8095 39.9753C39.309 39.6224 38.8111 39.0412 38.3288 38.4732C37.6086 37.6296 36.9859 36.8976 36.3554 36.8976C36.2758 36.8974 36.1967 36.9107 36.1214 36.9369C35.6443 37.0891 35.0385 37.7752 35.0385 39.6027C35.0385 40.1747 34.5913 40.5 34.278 40.5H32.5763C31.9965 40.5 28.9779 40.2953 26.3012 37.4473C23.0213 33.9603 20.0755 26.9654 20.0469 26.9037C19.8636 26.4511 20.2484 26.2045 20.6644 26.2045H24.4162C24.9193 26.2045 25.0831 26.5115 25.1975 26.787C25.3301 27.1031 25.8215 28.3678 26.6275 29.7885C27.9327 32.1001 28.7348 33.0407 29.3757 33.0407C29.4961 33.041 29.6145 33.0094 29.7189 32.9488C30.5561 32.4844 30.4001 29.4671 30.3611 28.8453C30.3611 28.7246 30.3598 27.498 29.9308 26.905C29.624 26.48 29.1014 26.3147 28.7855 26.2543C28.87 26.131 29.0494 25.9421 29.2795 25.8306C29.8528 25.542 30.8889 25.5 31.9172 25.5H32.4879C33.6033 25.5157 33.8919 25.5879 34.2975 25.6915C35.1139 25.8883 35.1295 26.4222 35.058 28.2405C35.0372 28.76 35.0151 29.3451 35.0151 30.0338C35.0151 30.1808 35.0086 30.3448 35.0086 30.5114C34.9839 31.4441 34.9514 32.4949 35.604 32.9265C35.6887 32.9797 35.7864 33.0079 35.8861 33.0079C36.1123 33.0079 36.7896 33.0079 38.6265 29.8266C39.4325 28.4215 40.0565 26.7646 40.0994 26.64C40.1358 26.5705 40.245 26.375 40.3776 26.2963C40.472 26.2457 40.5776 26.2204 40.6844 26.2228H45.0979C45.5789 26.2228 45.9052 26.2963 45.9689 26.48C46.0755 26.7778 45.9481 27.6869 43.9331 30.4366C43.5938 30.8944 43.2961 31.2906 43.0348 31.637C41.2083 34.0561 41.2083 34.1781 43.1427 36.0147Z" fill="white"/>
</svg>
