<svg width="66" height="66" viewBox="0 0 66 66" fill="none" xmlns="http://www.w3.org/2000/svg">
<rect x="0.5" y="0.5" width="65" height="65" rx="32.5" stroke="#494949"/>
<path d="M46.3 25.6875C45.95 24.375 45.075 23.4375 43.85 23.0625C41.75 22.5 32.825 22.5 32.825 22.5C32.825 22.5 24.075 22.5 21.8 23.0625C20.575 23.4375 19.7 24.375 19.35 25.6875C19 28.125 19 33 19 33C19 33 19 37.875 19.525 40.3125C19.875 41.625 20.75 42.5625 21.975 42.9375C24.075 43.5 33 43.5 33 43.5C33 43.5 41.75 43.5 44.025 42.9375C45.25 42.5625 46.125 41.625 46.475 40.3125C47 37.875 47 33 47 33C47 33 47 28.125 46.3 25.6875ZM30.2 37.5V28.5L37.55 33L30.2 37.5Z" fill="white"/>
</svg>
