<svg width="22" height="22" viewBox="0 0 22 22" fill="none" xmlns="http://www.w3.org/2000/svg">
<path d="M11 0C8.82441 0 6.69767 0.645138 4.88873 1.85383C3.07979 3.06253 1.66989 4.78049 0.83733 6.79048C0.00476609 8.80047 -0.213071 11.0122 0.211367 13.146C0.635804 15.2798 1.68345 17.2398 3.22183 18.7782C4.76021 20.3165 6.72022 21.3642 8.85401 21.7886C10.9878 22.2131 13.1995 21.9952 15.2095 21.1627C17.2195 20.3301 18.9375 18.9202 20.1462 17.1113C21.3549 15.3023 22 13.1756 22 11C22 8.08262 20.8411 5.28472 18.7782 3.22182C16.7153 1.15893 13.9174 0 11 0ZM11 20.625C9.09636 20.625 7.23546 20.0605 5.65264 19.0029C4.06982 17.9453 2.83616 16.4421 2.10766 14.6833C1.37917 12.9246 1.18856 10.9893 1.55995 9.12225C1.93133 7.25519 2.84802 5.54018 4.1941 4.1941C5.54018 2.84802 7.25519 1.93132 9.12226 1.55994C10.9893 1.18856 12.9246 1.37917 14.6833 2.10766C16.4421 2.83615 17.9453 4.06981 19.0029 5.65263C20.0605 7.23546 20.625 9.09635 20.625 11C20.625 13.5527 19.6109 16.0009 17.8059 17.8059C16.0009 19.6109 13.5527 20.625 11 20.625Z" fill="white"/>
<path d="M11 4C9.61553 4 8.26216 4.41054 7.11101 5.17971C5.95987 5.94888 5.06266 7.04213 4.53285 8.32121C4.00303 9.6003 3.86441 11.0078 4.13451 12.3656C4.4046 13.7235 5.07129 14.9708 6.05026 15.9497C7.02922 16.9287 8.2765 17.5954 9.63437 17.8655C10.9922 18.1356 12.3997 17.997 13.6788 17.4672C14.9579 16.9373 16.0511 16.0401 16.8203 14.889C17.5895 13.7378 18 12.3845 18 11C17.9983 9.14401 17.2602 7.36453 15.9479 6.05215C14.6355 4.73976 12.856 4.00172 11 4ZM11 16.963C9.82064 16.963 8.66776 16.6132 7.68716 15.958C6.70655 15.3028 5.94227 14.3715 5.49094 13.2819C5.03962 12.1923 4.92153 10.9934 5.15162 9.83668C5.3817 8.67998 5.94962 7.61748 6.78355 6.78355C7.61749 5.94961 8.67998 5.3817 9.83669 5.15161C10.9934 4.92153 12.1923 5.03962 13.2819 5.49094C14.3715 5.94226 15.3028 6.70655 15.958 7.68715C16.6132 8.66776 16.963 9.82064 16.963 11C16.9612 12.5809 16.3325 14.0967 15.2146 15.2146C14.0967 16.3325 12.581 16.9612 11 16.963Z" fill="white"/>
<path d="M11 7C10.2089 7 9.43552 7.2346 8.77772 7.67412C8.11992 8.11365 7.60723 8.73836 7.30448 9.46927C7.00173 10.2002 6.92252 11.0044 7.07686 11.7804C7.2312 12.5563 7.61216 13.269 8.17157 13.8284C8.73098 14.3878 9.44372 14.7688 10.2196 14.9231C10.9956 15.0775 11.7998 14.9983 12.5307 14.6955C13.2616 14.3928 13.8864 13.8801 14.3259 13.2223C14.7654 12.5645 15 11.7911 15 11C15 9.93913 14.5786 8.92172 13.8284 8.17157C13.0783 7.42143 12.0609 7 11 7ZM11 13.8682C10.431 13.8682 9.87486 13.6994 9.40189 13.3831C8.92891 13.0669 8.56039 12.6174 8.34298 12.0916C8.12557 11.5659 8.06904 10.9874 8.18055 10.4295C8.29207 9.87152 8.5666 9.35922 8.96941 8.9574C9.37222 8.55557 9.8852 8.28229 10.4434 8.17214C11.0016 8.062 11.5799 8.11994 12.1052 8.33864C12.6304 8.55733 13.079 8.92695 13.3941 9.4007C13.7092 9.87445 13.8766 10.431 13.8752 11C13.8752 11.7626 13.5723 12.4939 13.0331 13.0331C12.4939 13.5723 11.7626 13.8752 11 13.8752V13.8682Z" fill="white"/>
</svg>
