<svg width="16" height="18" viewBox="0 0 16 18" fill="none" xmlns="http://www.w3.org/2000/svg">
<path fill-rule="evenodd" clip-rule="evenodd" d="M5.44548 2.17057C7.85935 -0.0568552 11.7632 -0.0568552 14.1779 2.17057C16.6074 4.41143 16.6074 8.05659 14.1779 10.2982L7.65669 16.3139C5.94188 17.8954 3.17192 17.8954 1.4571 16.3139C1.04733 15.9421 0.720817 15.4934 0.497636 14.9954C0.274456 14.4975 0.159326 13.9608 0.159326 13.4184C0.159326 12.876 0.274456 12.3393 0.497636 11.8413C0.720817 11.3434 1.04733 10.8947 1.4571 10.5228L7.88479 4.59408C8.38027 4.14295 9.0361 3.89161 9.71775 3.89161C10.3994 3.89161 11.0552 4.14295 11.5507 4.59408C11.7947 4.81597 11.9892 5.08357 12.122 5.38046C12.2549 5.67734 12.3235 5.99726 12.3235 6.32059C12.3235 6.64392 12.2549 6.96384 12.122 7.26073C11.9892 7.55761 11.7947 7.82521 11.5507 8.0471L5.07708 14.0201C5.01868 14.074 4.94984 14.1163 4.87449 14.1445C4.79913 14.1728 4.71874 14.1864 4.63791 14.1848C4.55707 14.1831 4.47737 14.1661 4.40336 14.1347C4.32935 14.1033 4.26247 14.0582 4.20655 14.0019C4.15063 13.9456 4.10676 13.8793 4.07744 13.8067C4.04812 13.7341 4.03394 13.6566 4.03569 13.5787C4.03744 13.5008 4.0551 13.424 4.08765 13.3526C4.12021 13.2813 4.16702 13.2169 4.22542 13.163L10.699 7.19076C10.823 7.07955 10.9218 6.94493 10.9894 6.79529C11.057 6.64564 11.0919 6.48419 11.0919 6.32099C11.0919 6.15778 11.057 5.99633 10.9894 5.84669C10.9218 5.69705 10.823 5.56242 10.699 5.45121C10.4327 5.21147 10.0818 5.07813 9.71734 5.07813C9.35287 5.07813 9.002 5.21147 8.73563 5.45121L2.30794 11.3799C2.01828 11.641 1.78736 11.9567 1.62948 12.3073C1.47161 12.658 1.39014 13.0361 1.39014 13.4184C1.39014 13.8006 1.47161 14.1788 1.62948 14.5294C1.78736 14.88 2.01828 15.1957 2.30794 15.4568C3.54688 16.5994 5.56691 16.5994 6.80585 15.4568L13.3271 9.44112C15.2503 7.66677 15.2503 4.80125 13.3271 3.0269C11.3883 1.23911 8.23431 1.23911 6.2955 3.0269L1.04194 7.87393C0.924102 7.98288 0.766187 8.04225 0.60293 8.03899C0.439673 8.03573 0.284447 7.9701 0.171401 7.85654C0.0583544 7.74298 -0.00325268 7.5908 0.000132479 7.43347C0.00351764 7.27613 0.0716178 7.12654 0.189452 7.0176L5.44548 2.17057Z" fill="white"/>
</svg>
