<svg width="46" height="37" viewBox="0 0 46 37" fill="none" xmlns="http://www.w3.org/2000/svg">
<path d="M5.29293 32H2.70707C1.212 32 0 33.1193 0 34.5C0 35.8807 1.212 37 2.70707 37H5.29293C6.788 37 8 35.8807 8 34.5C8 33.1193 6.788 32 5.29293 32Z" fill="#3D7C40"/>
<path d="M15.9924 27C15.4684 26.9994 14.9493 27.1025 14.465 27.3034C13.9806 27.5044 13.5405 27.7993 13.1697 28.1713C12.7989 28.5433 12.5047 28.985 12.304 29.4712C12.1033 29.9575 12 30.4787 12 31.0051V32.9899C12 34.0534 12.4206 35.0734 13.1694 35.8255C13.9181 36.5775 14.9336 37 15.9924 37C16.5178 37.0013 17.0383 36.8986 17.5241 36.6977C18.01 36.4969 18.4516 36.2018 18.8238 35.8293C19.196 35.4569 19.4915 35.0144 19.6933 34.5272C19.8951 34.04 19.9993 33.5176 20 32.9899V31.0051C19.9993 30.4776 19.8951 29.9554 19.6932 29.4685C19.4913 28.9816 19.1958 28.5394 18.8235 28.1674C18.4512 27.7954 18.0096 27.5007 17.5238 27.3004C17.038 27.1001 16.5176 26.998 15.9924 27Z" fill="white"/>
<path d="M27 19C25.94 19 24.9234 19.3947 24.1734 20.0974C23.4234 20.8001 23.0013 21.7534 23 22.7478V33.2474C23.0013 34.2423 23.4232 35.196 24.1731 35.8995C24.9229 36.603 25.9395 36.9987 27 37C28.0605 36.9987 29.0771 36.603 29.827 35.8995C30.5768 35.196 30.9987 34.2423 31 33.2474V22.7478C30.9987 21.7534 30.5766 20.8001 29.8266 20.0974C29.0766 19.3947 28.06 19 27 19Z" fill="#3D7C40"/>
<path d="M34 13H42V33.2588C42 34.251 41.5807 35.2026 40.8343 35.9042C40.088 36.6058 39.0757 37 38.0202 37H37.9798C36.9243 37 35.912 36.6058 35.1657 35.9042C34.4193 35.2026 34 34.251 34 33.2588V13Z" fill="white"/>
<path d="M44.3877 14H31.6218C31.3207 14.0009 31.0253 13.9159 30.7689 13.7547C30.5126 13.5934 30.3054 13.3622 30.1707 13.0872C30.0361 12.8122 29.9793 12.5042 30.0067 12.198C30.0342 11.8918 30.1449 11.5995 30.3263 11.3541L36.7045 2.66309C36.855 2.45728 37.0505 2.29016 37.2754 2.17505C37.5003 2.05994 37.7484 2 38 2C38.2516 2 38.4997 2.05994 38.7246 2.17505C38.9495 2.29016 39.145 2.45728 39.2955 2.66309L45.6737 11.3541C45.8546 11.5989 45.9652 11.8903 45.993 12.1956C46.0209 12.5009 45.9649 12.8082 45.8314 13.0829C45.6979 13.3576 45.4921 13.5889 45.2371 13.7508C44.9821 13.9128 44.688 13.9991 44.3877 14Z" fill="white"/>
<path opacity="0.8" d="M3.00242 9C2.20677 9 1.4437 8.686 0.881095 8.12707C0.318486 7.56815 0.00241559 6.81008 0.00241559 6.01964V4.09993C-0.0137971 3.6988 0.051731 3.29855 0.195067 2.9232C0.338404 2.54785 0.556594 2.20514 0.836544 1.91563C1.11649 1.62613 1.45243 1.39579 1.8242 1.23845C2.19597 1.0811 2.5959 1 3 1C3.4041 1 3.80403 1.0811 4.1758 1.23845C4.54757 1.39579 4.88351 1.62613 5.16346 1.91563C5.44341 2.20514 5.6616 2.54785 5.80493 2.9232C5.94827 3.29855 6.0138 3.6988 5.99758 4.09993V6.01964C5.99759 6.80925 5.68218 7.56659 5.12061 8.12538C4.55905 8.68417 3.79723 8.99873 3.00242 9Z" fill="#3D7C40"/>
<path d="M15 1L3 18" stroke="white" stroke-miterlimit="10"/>
<path d="M14.9976 19C14.2028 18.9987 13.441 18.6842 12.8794 18.1254C12.3178 17.5666 12.0024 16.8093 12.0024 16.0196V14.0999C11.9862 13.6988 12.0517 13.2986 12.1951 12.9232C12.3384 12.5479 12.5566 12.2051 12.8365 11.9156C13.1165 11.6261 13.4524 11.3958 13.8242 11.2384C14.196 11.0811 14.5959 11 15 11C15.4041 11 15.804 11.0811 16.1758 11.2384C16.5476 11.3958 16.8835 11.6261 17.1635 11.9156C17.4434 12.2051 17.6616 12.5479 17.8049 12.9232C17.9483 13.2986 18.0138 13.6988 17.9976 14.0999V16.0196C17.9976 16.8101 17.6815 17.5681 17.1189 18.1271C16.5563 18.686 15.7932 19 14.9976 19Z" fill="#3D7C40"/>
</svg>
