<svg width="46" height="46" viewBox="0 0 46 46" fill="none" xmlns="http://www.w3.org/2000/svg">
<path d="M30.668 30.6654C30.668 28.5474 24.6611 26.832 17.2513 26.832M30.668 30.6654C30.668 32.7833 24.6611 34.4987 17.2513 34.4987C9.84147 34.4987 3.83464 32.7833 3.83464 30.6654M30.668 30.6654V40.1279C30.668 42.311 24.6611 44.082 17.2513 44.082C9.84147 44.082 3.83464 42.3129 3.83464 40.1279V30.6654M30.668 30.6654C37.9973 30.6654 44.0846 28.7736 44.0846 26.832V7.66536M17.2513 26.832C9.84147 26.832 3.83464 28.5474 3.83464 30.6654M17.2513 26.832C8.78347 26.832 1.91797 24.9403 1.91797 22.9987V13.4154M17.2513 9.58203C8.78347 9.58203 1.91797 11.2974 1.91797 13.4154M1.91797 13.4154C1.91797 15.5333 8.78347 17.2487 17.2513 17.2487C17.2513 19.1903 23.4862 21.082 30.8155 21.082C38.143 21.082 44.0846 19.1903 44.0846 17.2487M44.0846 7.66536C44.0846 5.54745 38.143 3.83203 30.8155 3.83203C23.4862 3.83203 17.5465 5.54745 17.5465 7.66536M44.0846 7.66536C44.0846 9.78328 38.143 11.4987 30.8155 11.4987C23.4881 11.4987 17.5465 9.78328 17.5465 7.66536M17.5465 7.66536V27.1502" stroke="white" stroke-width="2"/>
</svg>
