<svg width="83" height="21" viewBox="0 0 83 21" fill="none" xmlns="http://www.w3.org/2000/svg">
<path d="M7.27114 4.67485H6.12466C4.0127 4.67485 2.89638 5.73083 2.89638 7.32988C2.89638 9.10995 3.65067 9.95473 5.24972 11.0107L6.54705 11.8857L2.77571 17.4974H0L3.37913 12.4891C1.4482 11.1012 0.331871 9.77371 0.331871 7.48073C0.331871 4.61451 2.32315 2.68359 6.09449 2.68359H9.83565V17.5276H7.27114V4.67485ZM20.4558 6.78681V17.5276H17.9214V13.0322H14.5121V17.5276H11.9778V6.78681H14.5121V11.0409H17.9214V6.78681H20.4558ZM31.9206 19.9714H29.5673V17.5276H23.865V19.9714H21.5117V15.5062H22.2962C23.2013 13.7261 23.3522 10.3168 23.3522 7.69193V6.78681H30.744V15.5062H31.8905V19.9714H31.9206ZM28.27 8.77809H25.5848V9.10996C25.5848 10.9805 25.4038 13.8769 24.6797 15.5062H28.27V8.77809ZM37.6229 17.7086C34.3946 17.7086 32.5542 15.8984 32.5542 12.1572C32.5542 8.89875 34.0326 6.54544 37.11 6.54544C39.6443 6.54544 41.3037 7.96347 41.3037 11.6745V13.0322H35.1791C35.2696 14.8122 35.9937 15.6872 37.8341 15.6872C39.0711 15.6872 40.3986 15.2044 41.1831 14.6915V16.7733C40.459 17.2862 39.2521 17.7086 37.6229 17.7086ZM35.1791 11.1616H38.709V10.9504C38.709 9.59268 38.3168 8.56689 37.0497 8.56689C35.873 8.56689 35.2394 9.472 35.1791 11.1616ZM45.5578 12.2477V17.5276H43.0235V6.78681H45.5578V11.7348L49.1481 6.78681H51.7126L48.1223 11.7348L52.1954 17.5276H49.299L45.5578 12.2477ZM52.0445 12.1572C52.0445 8.89875 53.7341 6.57561 56.9925 6.57561C58.2597 6.57561 59.195 6.78681 59.7381 7.08851V9.26081C59.2252 8.92893 58.2597 8.59705 57.2942 8.59705C55.6348 8.59705 54.6995 9.80388 54.6995 12.127C54.6995 14.3597 55.4538 15.7475 57.2641 15.7475C58.32 15.7475 59.1045 15.476 59.7381 15.0234V17.1052C59.1045 17.5578 58.2899 17.769 57.1132 17.769C53.7039 17.7086 52.0445 15.7475 52.0445 12.1572Z" fill="white"/>
<path fill-rule="evenodd" clip-rule="evenodd" d="M75.0677 0.208984C70.693 0.208984 67.1328 3.76913 67.1328 8.14388C67.1328 10.2558 67.9776 12.2471 69.4559 13.7557C70.9041 15.2038 74.2531 17.2554 74.4643 19.4579C74.4945 19.7898 74.7359 20.0613 75.0677 20.0613C75.3996 20.0613 75.641 19.7898 75.6711 19.4579C75.8823 17.2856 79.2313 15.2038 80.6795 13.7557C82.1578 12.2773 83.0026 10.2558 83.0026 8.14388C83.0026 3.76913 79.4425 0.208984 75.0677 0.208984Z" fill="#FF4433"/>
</svg>
