<svg width="58" height="44" viewBox="0 0 58 44" fill="none" xmlns="http://www.w3.org/2000/svg">
<g clip-path="url(#clip0_891_8817)">
<path d="M55.8142 0H2.18579C0.978142 0 0 0.982535 0 2.19561V33.8453C0 35.0584 0.978142 36.0409 2.18579 36.0409H22.2623C22.5519 36.0409 22.7814 36.2769 22.7814 36.5624V38.4451C22.7814 39.0928 22.2568 39.6198 21.612 39.6198H20.8852C20.4481 39.6198 20.0929 39.9765 20.0929 40.4157V43.2041C20.0929 43.6432 20.4481 44 20.8852 44H39.0656C39.5027 44 39.8579 43.6432 39.8579 43.2041V40.4157C39.8579 39.9765 39.5027 39.6198 39.0656 39.6198H38.3388C37.694 39.6198 37.1694 39.0928 37.1694 38.4451V36.5624C37.1694 36.2715 37.4044 36.0409 37.6885 36.0409H55.8251C57.0328 36.0409 58.0109 35.0584 58.0109 33.8453V2.19561C58.0109 0.982535 57.0328 0 55.8251 0H55.8142Z" fill="white"/>
<path d="M3.43229 1.96484H53.5853C55.0498 1.96484 56.2356 3.15596 56.2356 4.62702V31.4134C56.2356 32.8845 55.0498 34.0756 53.5853 34.0756H4.4159C2.95142 34.0756 1.76562 32.8845 1.76562 31.4134V3.639C1.76562 2.71684 2.51426 1.96484 3.43229 1.96484Z" fill="#969696"/>
<path d="M52.707 3.87891H5.29167C4.37119 3.87891 3.625 4.62845 3.625 5.55306V30.3305C3.625 31.2551 4.37119 32.0047 5.29167 32.0047H52.707C53.6274 32.0047 54.3736 31.2551 54.3736 30.3305V5.55306C54.3736 4.62845 53.6274 3.87891 52.707 3.87891Z" fill="white"/>
<path d="M15.5162 17.9541C16.2284 17.9541 16.8058 17.3741 16.8058 16.6587C16.8058 15.9433 16.2284 15.3633 15.5162 15.3633C14.8039 15.3633 14.2266 15.9433 14.2266 16.6587C14.2266 17.3741 14.8039 17.9541 15.5162 17.9541Z" fill="#969696"/>
<path d="M30.2818 8.82519C30.994 8.82519 31.5714 8.24522 31.5714 7.52978C31.5714 6.81435 30.994 6.23438 30.2818 6.23438C29.5696 6.23438 28.9922 6.81435 28.9922 7.52978C28.9922 8.24522 29.5696 8.82519 30.2818 8.82519Z" fill="#969696"/>
<path d="M47.524 13.0322C48.2362 13.0322 48.8136 12.4522 48.8136 11.7368C48.8136 11.0214 48.2362 10.4414 47.524 10.4414C46.8118 10.4414 46.2344 11.0214 46.2344 11.7368C46.2344 12.4522 46.8118 13.0322 47.524 13.0322Z" fill="#969696"/>
<path d="M8.88778 30.3534C8.80035 30.3534 8.71292 30.3315 8.63095 30.2876C8.36319 30.1449 8.26483 29.81 8.41237 29.5411L15.0572 17.1908C15.1446 17.0261 15.3085 16.9218 15.4943 16.9053C15.6801 16.8944 15.8605 16.9712 15.9697 17.1139L20.4561 22.9378L29.8113 7.84297C29.926 7.66183 30.1228 7.56303 30.3413 7.59047C30.549 7.61792 30.7293 7.76063 30.7949 7.96372L36.7184 25.803L46.6583 12.2287C46.8386 11.9817 47.1774 11.9323 47.4233 12.1134C47.6637 12.2946 47.7184 12.6349 47.538 12.8819L36.9697 27.3125C36.8495 27.4772 36.6473 27.5595 36.4452 27.5321C36.243 27.4992 36.0736 27.3564 36.0135 27.1643L30.1228 9.42929L20.9697 24.2057C20.8768 24.3594 20.7129 24.4527 20.5326 24.4637C20.3523 24.4802 20.1829 24.3924 20.0736 24.2497L15.62 18.4642L9.37412 30.0735C9.27576 30.2546 9.0845 30.3589 8.89324 30.3589L8.88778 30.3534Z" fill="#969696"/>
</g>
<defs>
<clipPath id="clip0_891_8817">
<rect width="58" height="44" fill="white"/>
</clipPath>
</defs>
</svg>
