<svg width="45" height="35" viewBox="0 0 45 35" fill="none" xmlns="http://www.w3.org/2000/svg">
<g clip-path="url(#clip0_879_15312)">
<path d="M44.9766 5.58726L40.5406 33.746C40.4247 34.4691 39.8198 34.9949 39.104 34.9949H5.99543C5.09815 34.9949 4.41259 34.1708 4.55878 33.2657L9.70048 1.24892C9.81642 0.530916 10.4264 0 11.1371 0H17.7457C18.3658 0 18.9152 0.399451 19.1219 0.996099L19.7117 2.73042C19.9133 3.32707 20.4628 3.72652 21.0778 3.72652L43.55 3.86305C44.4423 3.8681 45.1228 4.68723 44.9766 5.58726Z" fill="white"/>
<path d="M5.55245 6.16797H40.3094C40.4757 6.16797 40.6118 6.30449 40.6118 6.47135V33.5582C40.6118 34.352 39.9666 34.9992 39.1752 34.9992H5.55245C5.3861 34.9992 5.25 34.8627 5.25 34.6959V6.47135C5.25 6.30449 5.3861 6.16797 5.55245 6.16797Z" fill="#B4B4B4"/>
<path d="M39.0212 34.9994H5.58503C4.82385 34.9994 4.17358 34.4584 4.02739 33.7101L0.0299681 13.0044C-0.161586 12.0234 0.589507 11.1133 1.5876 11.1133H34.2223C34.9583 11.1133 35.5985 11.624 35.7648 12.342L40.5688 33.0527C40.8007 34.0488 40.0445 35.0045 39.0263 35.0045L39.0212 34.9994Z" fill="white"/>
</g>
<defs>
<clipPath id="clip0_879_15312">
<rect width="45" height="35" fill="white"/>
</clipPath>
</defs>
</svg>
