<svg width="61" height="60" viewBox="0 0 61 60" fill="none" xmlns="http://www.w3.org/2000/svg">
<path d="M37.2153 28.7813L16.4609 25.125V52.1419C16.4612 52.4354 16.5192 52.726 16.6318 52.997C16.7443 53.2681 16.9092 53.5143 17.1169 53.7217C17.3246 53.9291 17.5711 54.0935 17.8424 54.2056C18.1136 54.3177 18.4043 54.3752 18.6978 54.375H54.5103C54.8041 54.3757 55.0952 54.3185 55.3669 54.2067C55.6386 54.0948 55.8856 53.9305 56.0937 53.723C56.3018 53.5156 56.4669 53.2692 56.5797 52.9979C56.6925 52.7266 56.7507 52.4357 56.7509 52.1419V42.1875L37.2153 28.7813Z" fill="#185C37"/>
<path d="M37.2153 5.625H18.6978C18.4043 5.62475 18.1136 5.68232 17.8424 5.79441C17.5711 5.9065 17.3246 6.07093 17.1169 6.27829C16.9092 6.48566 16.7443 6.7319 16.6318 7.00297C16.5192 7.27404 16.4612 7.56462 16.4609 7.85813V17.8125L37.2153 30L48.2047 33.6563L56.7509 30V17.8125L37.2153 5.625Z" fill="#21A366"/>
<path d="M16.4609 17.8125H37.2153V30H16.4609V17.8125Z" fill="#107C41"/>
<path opacity="0.1" d="M31.3147 15.375H16.4609V45.8438H31.3147C31.9066 45.8408 32.4734 45.6048 32.8925 45.1868C33.3115 44.7688 33.549 44.2025 33.5534 43.6106V17.6081C33.549 17.0163 33.3115 16.45 32.8925 16.032C32.4734 15.614 31.9066 15.3779 31.3147 15.375Z" fill="black"/>
<path opacity="0.2" d="M30.0941 16.5938H16.4609V47.0625H30.0941C30.6859 47.0596 31.2528 46.8235 31.6719 46.4055C32.0909 45.9875 32.3284 45.4212 32.3328 44.8294V18.8269C32.3284 18.235 32.0909 17.6687 31.6719 17.2507C31.2528 16.8327 30.6859 16.5967 30.0941 16.5938Z" fill="black"/>
<path opacity="0.2" d="M30.0941 16.5938H16.4609V44.625H30.0941C30.6859 44.6221 31.2528 44.386 31.6719 43.968C32.0909 43.55 32.3284 42.9837 32.3328 42.3919V18.8269C32.3284 18.235 32.0909 17.6687 31.6719 17.2507C31.2528 16.8327 30.6859 16.5967 30.0941 16.5938Z" fill="black"/>
<path opacity="0.2" d="M28.8734 16.5938H16.4609V44.625H28.8734C29.4653 44.6221 30.0322 44.386 30.4512 43.968C30.8703 43.55 31.1078 42.9837 31.1122 42.3919V18.8269C31.1078 18.235 30.8703 17.6687 30.4512 17.2507C30.0322 16.8327 29.4653 16.5967 28.8734 16.5938Z" fill="black"/>
<path d="M6.48875 16.5938H28.8725C29.4654 16.5933 30.0343 16.8282 30.4541 17.2469C30.8739 17.6657 31.1103 18.2339 31.1112 18.8269V41.1731C31.1103 41.7661 30.8739 42.3343 30.4541 42.7531C30.0343 43.1718 29.4654 43.4067 28.8725 43.4063H6.48875C6.19509 43.4067 5.90421 43.3494 5.63273 43.2374C5.36126 43.1254 5.11452 42.961 4.9066 42.7536C4.69869 42.5462 4.53369 42.2999 4.42103 42.0287C4.30836 41.7575 4.25025 41.4668 4.25 41.1731V18.8269C4.25025 18.5332 4.30836 18.2425 4.42103 17.9713C4.53369 17.7001 4.69869 17.4538 4.9066 17.2464C5.11452 17.039 5.36126 16.8746 5.63273 16.7626C5.90421 16.6506 6.19509 16.5933 6.48875 16.5938Z" fill="url(#paint0_linear_598_4938)"/>
<path d="M11.1875 37.262L15.8956 29.9795L11.5831 22.7383H15.0463L17.3994 27.3752C17.6169 27.8139 17.7744 28.1402 17.8456 28.3577H17.8775C18.0312 28.0052 18.1944 27.6658 18.365 27.3339L20.8813 22.7458H24.0687L19.6456 29.9458L24.1813 37.2677H20.7894L18.0706 32.1845C17.9444 31.966 17.8371 31.737 17.75 31.5002H17.705C17.6257 31.7309 17.52 31.9518 17.39 32.1583L14.5906 37.262H11.1875Z" fill="white"/>
<path d="M54.5156 5.625H37.2188V17.8125H56.7544V7.85813C56.7541 7.56447 56.696 7.27373 56.5834 7.00254C56.4707 6.73135 56.3057 6.48502 56.0978 6.27763C55.8899 6.07024 55.6431 5.90586 55.3716 5.79388C55.1002 5.68189 54.8093 5.62451 54.5156 5.625Z" fill="#33C481"/>
<path d="M37.2188 30H56.7544V42.1875H37.2188V30Z" fill="#107C41"/>
<defs>
<linearGradient id="paint0_linear_598_4938" x1="8.92625" y1="14.8388" x2="26.435" y2="45.1613" gradientUnits="userSpaceOnUse">
<stop stop-color="#18884F"/>
<stop offset="0.5" stop-color="#117E43"/>
<stop offset="1" stop-color="#0B6631"/>
</linearGradient>
</defs>
</svg>
