<svg width="50" height="50" viewBox="0 0 50 50" fill="none" xmlns="http://www.w3.org/2000/svg">
<path d="M18.8698 4.01962C14.9323 3.99878 11.099 7.79045 12.849 12.4988H6.24479C5.13972 12.4988 4.07992 12.9378 3.29851 13.7192C2.51711 14.5006 2.07813 15.5604 2.07812 16.6655V20.8321C2.07813 21.3847 2.29762 21.9146 2.68832 22.3053C3.07902 22.696 3.60892 22.9155 4.16146 22.9155H22.9115V16.6655H27.0781V22.9155H45.8281C46.3807 22.9155 46.9106 22.696 47.3013 22.3053C47.692 21.9146 47.9115 21.3847 47.9115 20.8321V16.6655C47.9115 15.5604 47.4725 14.5006 46.6911 13.7192C45.9097 12.9378 44.8499 12.4988 43.7448 12.4988H37.1406C39.5781 5.68628 30.4115 0.873783 26.1823 6.74878L24.9948 8.33212L23.8073 6.70712C22.4948 4.85295 20.6823 4.04045 18.8698 4.01962ZM18.7448 8.33212C20.599 8.33212 21.5365 10.5821 20.224 11.8946C18.9115 13.2071 16.6615 12.2696 16.6615 10.4155C16.6615 9.86292 16.881 9.33301 17.2717 8.94231C17.6624 8.55161 18.1923 8.33212 18.7448 8.33212ZM31.2448 8.33212C33.099 8.33212 34.0365 10.5821 32.724 11.8946C31.4115 13.2071 29.1615 12.2696 29.1615 10.4155C29.1615 9.86292 29.381 9.33301 29.7717 8.94231C30.1624 8.55161 30.6923 8.33212 31.2448 8.33212ZM4.16146 24.9988V41.6655C4.16146 42.7705 4.60044 43.8303 5.38185 44.6117C6.16325 45.3931 7.22306 45.8321 8.32812 45.8321H41.6615C42.7665 45.8321 43.8263 45.3931 44.6077 44.6117C45.3891 43.8303 45.8281 42.7705 45.8281 41.6655V24.9988H27.0781V41.6655H22.9115V24.9988H4.16146Z" fill="white"/>
</svg>
