<svg width="83" height="39" viewBox="0 0 83 39" fill="none" xmlns="http://www.w3.org/2000/svg">
<path d="M67.3875 0H13.6475C11.633 0 10 1.60907 10 3.59397V35.406C10 37.3909 11.633 39 13.6475 39H67.3875C69.402 39 71.0351 37.3909 71.0351 35.406V3.59397C71.0351 1.60907 69.402 0 67.3875 0Z" fill="white"/>
<path d="M37.4864 5.83594H16.8006C16.1902 5.83594 15.6953 6.32354 15.6953 6.92502V7.40421C15.6953 8.0057 16.1902 8.4933 16.8006 8.4933H37.4864C38.0969 8.4933 38.5917 8.0057 38.5917 7.40421V6.92502C38.5917 6.32354 38.0969 5.83594 37.4864 5.83594Z" fill="#969696"/>
<path d="M37.4864 11.457H16.8006C16.1902 11.457 15.6953 11.9446 15.6953 12.5461V13.0253C15.6953 13.6268 16.1902 14.1144 16.8006 14.1144H37.4864C38.0969 14.1144 38.5917 13.6268 38.5917 13.0253V12.5461C38.5917 11.9446 38.0969 11.457 37.4864 11.457Z" fill="#969696"/>
<path d="M37.4864 17.0781H16.8006C16.1902 17.0781 15.6953 17.5657 15.6953 18.1672V18.6464C15.6953 19.2479 16.1902 19.7355 16.8006 19.7355H37.4864C38.0969 19.7355 38.5917 19.2479 38.5917 18.6464V18.1672C38.5917 17.5657 38.0969 17.0781 37.4864 17.0781Z" fill="#969696"/>
<path d="M45.9955 21.2757L49.6028 17.8964C50.0069 17.5177 50.6495 17.5318 51.0389 17.9244L57.2167 24.2017C57.5964 24.5897 58.2341 24.6084 58.6382 24.2391L76.0858 8.38919C76.4802 8.02928 77.1033 8.03863 77.4879 8.40789L81.0806 11.8574C81.4798 12.2407 81.4749 12.8576 81.066 13.2363L58.8475 33.8538C58.4483 34.2231 57.8203 34.2137 57.4309 33.8351L45.976 22.6406C45.5865 22.2573 45.5914 21.645 45.9906 21.2711L45.9955 21.2757Z" fill="#9E9E9E"/>
</svg>
