<svg width="57" height="51" viewBox="0 0 57 51" fill="none" xmlns="http://www.w3.org/2000/svg">
<g clip-path="url(#clip0_879_15316)">
<path d="M49.9666 15.0624L34.8572 22.1639L30.2493 24.33L27.8903 25.4384L26.2471 24.6293L22.7313 22.8987L20.4892 21.7948L15.8824 19.5274L6.8125 15.0624L15.8824 10.8168L20.4892 8.65966L22.7313 7.60979L27.3381 5.4538L28.3901 4.96094L34.4564 7.80108L34.8572 7.989L49.9666 15.0624Z" fill="white"/>
<path d="M28.3901 50.9998L6.8125 41.1279V15.0625L15.8824 19.5275V23.7C15.8824 23.7776 15.9447 23.8418 16.0216 23.8418H20.3489C20.4268 23.8418 20.4892 23.7776 20.4892 23.7V21.7949L22.7313 22.8988V24.4876C22.7313 24.5653 22.7937 24.6294 22.8716 24.6294H26.2471L27.8903 25.4385L28.3901 50.9998Z" fill="#B4B4B4"/>
<path d="M50.0594 41.6962L28.3905 50.9998L27.8906 25.4385L30.2497 24.3301V25.1167C30.2497 25.1943 30.3131 25.2584 30.3899 25.2584H34.7173C34.7952 25.2584 34.8575 25.1943 34.8575 25.1167V22.164L49.967 15.0625L50.0171 29.5862L50.0594 41.6962Z" fill="white"/>
<path d="M27.8921 25.4385L22.4404 36.5819L6.81439 29.6695L0 26.6549L6.81439 15.0625L15.8843 19.5275V23.7C15.8843 23.7776 15.9466 23.8418 16.0235 23.8418H20.3508C20.4287 23.8418 20.4911 23.7776 20.4911 23.7V21.7949L22.7332 22.8988V24.4876C22.7332 24.5653 22.7955 24.6294 22.8735 24.6294H26.2489L27.8921 25.4385Z" fill="white"/>
<path d="M56.9985 26.3646L50.0171 29.5862L34.2987 36.8407L27.8906 25.4385L30.2497 24.3301V25.1167C30.2497 25.1943 30.3131 25.2584 30.3899 25.2584H34.7173C34.7952 25.2584 34.8575 25.1943 34.8575 25.1167V22.164L49.967 15.0625L56.9985 26.3646Z" fill="#B4B4B4"/>
<path d="M20.4896 21.7947V23.6998C20.4896 23.7774 20.4272 23.8416 20.3493 23.8416H16.022C15.9452 23.8416 15.8828 23.7774 15.8828 23.6998V19.5273L20.4896 21.7947Z" fill="white"/>
<path d="M20.4896 6.52459V21.7932L15.8828 19.5258V6.52459C15.8828 6.44583 15.9452 6.38281 16.022 6.38281H20.3493C20.4272 6.38281 20.4896 6.44583 20.4896 6.52459Z" fill="#B4B4B4"/>
<path d="M26.2501 24.6291H22.8746C22.7967 24.6291 22.7344 24.5649 22.7344 24.4873V22.8984L26.2501 24.6291Z" fill="white"/>
<path d="M27.3411 0.140657V24.4878C27.3411 24.5655 27.2788 24.6296 27.202 24.6296H26.2501L22.7344 22.899V0.140657C22.7344 0.0630144 22.7967 0 22.8746 0H27.202C27.2788 0 27.3411 0.0630144 27.3411 0.140657Z" fill="#B4B4B4"/>
<path d="M34.8579 22.1641V25.1167C34.8579 25.1944 34.7955 25.2585 34.7176 25.2585H30.3903C30.3135 25.2585 30.25 25.1944 30.25 25.1167V24.3302L34.8579 22.1641Z" fill="#B4B4B4"/>
<path d="M34.4689 12.1932V23.7403L30.4922 25.4992V12.1932C30.4922 12.1293 30.547 12.0781 30.6132 12.0781H34.3479C34.4151 12.0781 34.4689 12.1293 34.4689 12.1932Z" fill="#B4B4B4"/>
</g>
<defs>
<clipPath id="clip0_879_15316">
<rect width="57" height="51" fill="white"/>
</clipPath>
</defs>
</svg>
