<svg width="60" height="43" viewBox="0 0 60 43" fill="none" xmlns="http://www.w3.org/2000/svg">
<g clip-path="url(#clip0_891_9597)">
<path d="M46.3156 0H13.2223C11.0198 0 9.23438 1.86938 9.23438 4.17538V38.8246C9.23438 41.1306 11.0198 43 13.2223 43H46.3156C48.518 43 50.3035 41.1306 50.3035 38.8246V4.17538C50.3035 1.86938 48.518 0 46.3156 0Z" fill="white"/>
<path d="M42.5745 26.1237L36.6333 27.1835C36.2315 27.2581 35.967 26.9545 36.0687 26.5391L37.61 20.4358C37.6507 20.2707 37.7524 20.1056 37.8897 19.9725L54.5534 4.03255C54.8637 3.73431 55.2859 3.68638 55.4893 3.92604L59.8892 8.96418C60.0978 9.20384 60.0113 9.63523 59.701 9.93347L43.0374 25.8787C42.9 26.0119 42.7372 26.0971 42.5745 26.129V26.1237Z" fill="#9E9E9E"/>
<path d="M44.7298 34.3029H14.8003C13.9152 34.3029 13.2031 33.8928 13.2031 33.3922V32.9927C13.2031 32.4868 13.9203 32.082 14.8003 32.082H44.7298C45.6149 32.082 46.327 32.4921 46.327 32.9927V33.3922C46.327 33.8981 45.6098 34.3029 44.7298 34.3029Z" fill="#969696"/>
<path d="M44.7298 38.4201H14.8003C13.9152 38.4201 13.2031 38.01 13.2031 37.5093V37.1099C13.2031 36.604 13.9203 36.1992 14.8003 36.1992H44.7298C45.6149 36.1992 46.327 36.6093 46.327 37.1099V37.5093C46.327 38.0153 45.6098 38.4201 44.7298 38.4201Z" fill="#969696"/>
</g>
<defs>
<clipPath id="clip0_891_9597">
<rect width="60" height="43" fill="white"/>
</clipPath>
</defs>
</svg>
