<svg width="46" height="46" viewBox="0 0 46 46" fill="none" xmlns="http://www.w3.org/2000/svg">
<path d="M44.1434 16.9892L25.7113 4.18844C24.6823 3.47386 23.3177 3.47386 22.2887 4.18844L3.85662 16.9892C2.75742 17.7526 2.29678 19.1517 2.72748 20.4188L9.71169 40.9655C10.1252 42.1819 11.2673 43 12.5521 43H35.4479C36.7327 43 37.8748 42.1819 38.2883 40.9655L45.2725 20.4188C45.7032 19.1517 45.2426 17.7526 44.1434 16.9892Z" fill="white"/>
<path d="M22.6378 27.204C22.4325 27.204 22.2645 27.1387 22.1338 27.008C22.0032 26.8773 21.9378 26.7093 21.9378 26.504V14.1C21.9378 13.8947 22.0032 13.7267 22.1338 13.596C22.2645 13.4653 22.4325 13.4 22.6378 13.4H25.3538C25.5592 13.4 25.7272 13.4653 25.8578 13.596C25.9885 13.7267 26.0538 13.8947 26.0538 14.1V26.504C26.0538 26.7093 25.9885 26.8773 25.8578 27.008C25.7272 27.1387 25.5592 27.204 25.3538 27.204H22.6378ZM22.4698 33C22.2832 33 22.1245 32.9347 21.9938 32.804C21.8632 32.6733 21.7978 32.5053 21.7978 32.3V29.304C21.7978 29.0987 21.8632 28.9307 21.9938 28.8C22.1245 28.6693 22.2832 28.604 22.4698 28.604H25.4938C25.6992 28.604 25.8672 28.6693 25.9978 28.8C26.1285 28.9307 26.1938 29.0987 26.1938 29.304V32.3C26.1938 32.5053 26.1285 32.6733 25.9978 32.804C25.8672 32.9347 25.6992 33 25.4938 33H22.4698Z" fill="#333333"/>
</svg>
