<svg width="39" height="41" viewBox="0 0 39 41" fill="none" xmlns="http://www.w3.org/2000/svg">
<g clip-path="url(#clip0_2501_8808)">
<path d="M9.15098 26.9114V40.4756C9.15098 40.7711 8.73945 41.0063 8.22503 41.0063H1.56704C1.05997 41.0063 0.648438 40.7711 0.648438 40.4756V26.9114C0.648438 26.6219 1.05997 26.3867 1.56704 26.3867H8.22503C8.73945 26.3867 9.15098 26.6219 9.15098 26.9114Z" fill="white"/>
<path d="M22.4943 20.5307V40.4759C22.4943 40.7714 22.0827 41.0066 21.5683 41.0066H14.9103C14.4033 41.0066 13.9844 40.7714 13.9844 40.4759V20.5307C13.9844 20.2352 14.4033 20 14.9103 20H21.5683C22.0827 20 22.4943 20.2352 22.4943 20.5307Z" fill="#5A935A"/>
<path d="M35.838 15.8198V40.4753C35.838 40.7708 35.4191 41.006 34.9121 41.006H28.2541C27.7397 41.006 27.3281 40.7708 27.3281 40.4753V15.8198C27.3281 15.5303 27.7397 15.2891 28.2541 15.2891H34.9121C35.4191 15.2891 35.838 15.5303 35.838 15.8198Z" fill="#5A935A"/>
<path d="M0.648438 36.4508C2.84572 36.1552 5.80728 35.715 9.15098 35.0938V40.4675C9.15098 40.7631 8.73945 40.9983 8.22503 40.9983H1.56704C1.05997 40.9983 0.648438 40.7631 0.648438 40.4675V36.4508Z" fill="#C1C1C1"/>
<path d="M13.9844 34.124C16.7549 33.5209 19.6503 32.8032 22.4943 31.9648V40.4688C22.4943 40.7643 22.0827 40.9996 21.5683 40.9996H14.9103C14.4033 40.9996 13.9844 40.7643 13.9844 40.4688V34.124Z" fill="#3C793E"/>
<path d="M35.838 26.4883V40.4746C35.838 40.7701 35.4191 41.0053 34.9121 41.0053H28.2541C27.7397 41.0053 27.3281 40.7701 27.3281 40.4746V30.3905C30.4293 29.2687 33.3541 27.978 35.838 26.4883Z" fill="#326B32"/>
<path d="M1.04122 20.6214C0.512107 20.6214 0.0564824 20.2716 -0.00230789 19.8072C-0.0610982 19.3127 0.357783 18.8663 0.930988 18.8181C1.12206 18.8 16.0915 17.2741 35.7348 2.20822C36.1684 1.8765 36.8298 1.91269 37.2119 2.28059C37.5941 2.65452 37.5573 3.22749 37.1238 3.5592C16.8999 19.0774 1.78345 20.5611 1.15145 20.6154C1.11471 20.6154 1.07796 20.6154 1.04122 20.6154V20.6214Z" fill="#5A935A"/>
<path d="M38.353 0.53125L27.9766 3.33575L36.119 9.30663L38.353 0.53125Z" fill="#5A935A"/>
<path d="M35.6922 9.70323L27.5497 3.72633C27.3807 3.59967 27.2998 3.40668 27.3513 3.21971C27.3954 3.03274 27.5644 2.88196 27.7849 2.82165L38.154 0.0231812C38.3745 -0.0371307 38.617 0.00508763 38.786 0.131743C38.955 0.258397 39.0358 0.451395 38.9844 0.638362L36.7504 9.41374C36.7063 9.6007 36.5373 9.75148 36.3168 9.8118C36.0963 9.87211 35.8538 9.82989 35.6848 9.70323H35.6922ZM29.2473 3.55142L35.7215 8.29797L37.5 1.32592L29.2546 3.55142H29.2473Z" fill="#5A935A"/>
</g>
<defs>
<clipPath id="clip0_2501_8808">
<rect width="39" height="41" fill="white"/>
</clipPath>
</defs>
</svg>
