<svg width="46" height="50" viewBox="0 0 46 50" fill="none" xmlns="http://www.w3.org/2000/svg">
<g clip-path="url(#clip0_879_15252)">
<path d="M13.8683 34.5208C14.4298 34.5208 14.885 34.0711 14.885 33.5163C14.885 32.9615 14.4298 32.5117 13.8683 32.5117C13.3068 32.5117 12.8516 32.9615 12.8516 33.5163C12.8516 34.0711 13.3068 34.5208 13.8683 34.5208Z" fill="white"/>
<path d="M43.2883 41.2828L9.54332 49.8872C8.12719 50.252 6.68685 49.7318 5.82144 48.6734C5.5128 48.2848 5.27678 47.8303 5.14364 47.3221L4.93182 46.5029L0.114561 28.0862C-0.38169 26.1788 0.780262 24.2355 2.7108 23.7392L33.8354 15.7985L35.7417 15.3142L36.4558 15.1288C38.3864 14.6385 40.3593 15.7866 40.8555 17.694L45.8846 36.9298C46.3808 38.8373 45.2189 40.7866 43.2883 41.2828Z" fill="#5A935A"/>
<path d="M33.9902 39.556C34.4982 39.556 34.9101 39.1491 34.9101 38.6472C34.9101 38.1452 34.4982 37.7383 33.9902 37.7383C33.4822 37.7383 33.0703 38.1452 33.0703 38.6472C33.0703 39.1491 33.4822 39.556 33.9902 39.556Z" fill="white"/>
<path d="M36.8027 38.8451C37.3107 38.8451 37.7226 38.4382 37.7226 37.9362C37.7226 37.4343 37.3107 37.0273 36.8027 37.0273C36.2947 37.0273 35.8828 37.4343 35.8828 37.9362C35.8828 38.4382 36.2947 38.8451 36.8027 38.8451Z" fill="white"/>
<path d="M39.6074 38.1263C40.1154 38.1263 40.5273 37.7194 40.5273 37.2175C40.5273 36.7155 40.1154 36.3086 39.6074 36.3086C39.0993 36.3086 38.6875 36.7155 38.6875 37.2175C38.6875 37.7194 39.0993 38.1263 39.6074 38.1263Z" fill="white"/>
<path d="M3.63951 30.5087L3.04643 30.2456C3.47611 29.3009 2.51386 28.2964 2.50781 28.2844L2.9738 27.8359C3.02827 27.8898 4.25679 29.1574 3.63951 30.5028V30.5087Z" fill="white"/>
<path d="M4.91437 30.7691L4.32129 30.506C5.00515 29.0052 3.51034 27.4625 3.49219 27.4446L3.95818 26.9961C4.0308 27.0738 5.77373 28.8736 4.91437 30.7631V30.7691Z" fill="white"/>
<path d="M5.98182 30.8668L5.38874 30.6037C6.30861 28.5767 4.29941 26.4898 4.28125 26.4719L4.74724 26.0234C4.84407 26.1191 7.08325 28.4391 5.98182 30.8668Z" fill="white"/>
<path d="M36.7744 8.11589L35.7396 15.3151L34.4142 24.4995C34.3658 24.8045 34.1661 25.0676 33.8756 25.1931C33.5851 25.3187 33.2523 25.2828 32.992 25.1034L30.4745 23.3515L22.8371 37.451C22.6071 37.8815 22.0624 38.0489 21.6267 37.8277L13.7351 33.8454L5.81931 48.6744C5.51066 48.2857 5.27464 47.8313 5.1415 47.323L4.92969 46.5038L12.5489 32.2249C12.7789 31.7944 13.3236 31.621 13.7654 31.8482L21.657 35.8305L29.3549 21.6115C29.482 21.3842 29.6938 21.2228 29.948 21.163C30.2022 21.1032 30.4684 21.157 30.6802 21.3005L32.8226 22.7954L33.8333 15.7995L34.977 7.85877C35.0497 7.36846 35.5036 7.02763 36.0059 7.09938C36.5021 7.17114 36.8471 7.62557 36.7744 8.11589Z" fill="white"/>
<path d="M36.7535 0.558594L30.9922 8.13453L40.5178 9.2766L36.7535 0.558594Z" fill="white"/>
<path d="M40.4486 9.83421L30.929 8.69214C30.7293 8.66822 30.5538 8.53668 30.4752 8.35729C30.3965 8.17193 30.4207 7.96265 30.5417 7.80121L36.3031 0.225267C36.4241 0.0638226 36.6238 -0.0198894 36.8235 0.00402828C37.0232 0.027946 37.1987 0.159493 37.2774 0.338876L41.0356 9.05689C41.1143 9.24225 41.0901 9.45153 40.969 9.61297C40.848 9.77442 40.6483 9.85813 40.4486 9.83421ZM32.0426 7.69358L39.6074 8.60245L36.6178 1.67827L32.0426 7.69956V7.69358Z" fill="white"/>
</g>
<defs>
<clipPath id="clip0_879_15252">
<rect width="46" height="50" fill="white"/>
</clipPath>
</defs>
</svg>
