<svg width="58" height="48" viewBox="0 0 58 48" fill="none" xmlns="http://www.w3.org/2000/svg">
<g clip-path="url(#clip0_2501_8855)">
<path d="M16.764 27.3095C16.764 29.639 15.4919 31.6852 13.6012 32.795C13.572 32.8066 13.5545 32.8239 13.5253 32.8355C12.5916 33.3673 11.5003 33.6736 10.3391 33.6736C9.17777 33.6736 8.09235 33.3673 7.15282 32.8355C7.12364 32.8239 7.10613 32.8066 7.07696 32.795C5.18622 31.691 3.91406 29.639 3.91406 27.3095C3.91406 23.795 6.79101 20.9453 10.3391 20.9453C13.8871 20.9453 16.764 23.795 16.764 27.3095Z" fill="white"/>
<path d="M20.693 39.4888V41.0552C20.693 42.1598 19.7976 43.0552 18.693 43.0552H2C0.895428 43.0552 0 42.1598 0 41.0552V39.4888C0 36.5722 2.50395 34.1339 5.82903 33.5944C6.18656 33.5364 6.54968 33.6086 6.88208 33.7525C7.92848 34.2054 9.10303 34.5639 10.3465 34.5639C11.59 34.5639 12.7646 34.2054 13.8109 33.7525C14.1434 33.6086 14.5065 33.5364 14.864 33.5944C18.1891 34.1339 20.693 36.5722 20.693 39.4888Z" fill="white"/>
<path d="M54.0765 27.3095C54.0765 29.639 52.8044 31.6852 50.9137 32.795C50.8845 32.8066 50.867 32.8239 50.8378 32.8355C49.9041 33.3673 48.8128 33.6736 47.6516 33.6736C46.4903 33.6736 45.4048 33.3673 44.4653 32.8355C44.4361 32.8239 44.4186 32.8066 44.3895 32.795C42.4987 31.691 41.2266 29.639 41.2266 27.3095C41.2266 23.795 44.1035 20.9453 47.6516 20.9453C51.1996 20.9453 54.0765 23.795 54.0765 27.3095Z" fill="white"/>
<path d="M58.0055 39.4888V41.0552C58.0055 42.1598 57.1101 43.0552 56.0055 43.0552H39.3125C38.2079 43.0552 37.3125 42.1598 37.3125 41.0552V39.4888C37.3125 36.5722 39.8164 34.1339 43.1415 33.5944C43.4991 33.5364 43.8622 33.6086 44.1946 33.7525C45.241 34.2054 46.4155 34.5639 47.659 34.5639C48.9025 34.5639 50.0771 34.2054 51.1234 33.7525C51.4559 33.6086 51.819 33.5364 52.1765 33.5944C55.5016 34.1339 58.0055 36.5722 58.0055 39.4888Z" fill="white"/>
<path d="M38.2875 25.2081C38.2875 25.8613 38.2175 26.4971 38.0891 27.1156C37.6456 29.185 36.5018 31.0058 34.9146 32.3064C34.5352 32.6185 34.1326 32.896 33.7124 33.1445C33.6716 33.1676 33.6424 33.185 33.6015 33.2081C32.7904 33.6705 31.8975 34.0116 30.9522 34.2081C30.3219 34.3468 29.6625 34.4162 28.9914 34.4162C28.3203 34.4162 27.6609 34.3468 27.0307 34.2081C26.0853 34.0116 25.1983 33.6705 24.3871 33.2081C24.3463 33.185 24.3171 33.1676 24.2763 33.1445C23.8503 32.896 23.4476 32.6127 23.0683 32.3006C21.481 31 20.3372 29.185 19.8937 27.1156C19.7653 26.4971 19.6953 25.8613 19.6953 25.2081C19.6953 20.1272 23.8619 16 28.9914 16C34.1209 16 38.2875 20.1272 38.2875 25.2081Z" fill="#3C793E"/>
<path d="M43.9717 42.8371V45.9989C43.9717 47.1035 43.0763 47.9989 41.9717 47.9989H16.0234C14.9189 47.9989 14.0234 47.1035 14.0234 45.9989V42.8371C14.0234 39.7562 15.955 37.0452 18.8728 35.5018C19.1938 35.3342 19.5206 35.1781 19.859 35.0394C20.8978 34.6117 22.0357 34.3226 23.2378 34.207V34.207C23.2532 34.207 23.2683 34.2104 23.2822 34.217C24.964 35.0163 26.9171 35.7099 28.9976 35.7099C31.0802 35.7099 33.0411 35.0148 34.724 34.2145C34.7345 34.2096 34.7458 34.207 34.7573 34.207V34.207C35.9594 34.3226 37.0974 34.6117 38.1361 35.0394C38.4746 35.1781 38.8014 35.3342 39.1223 35.5018C42.0401 37.0452 43.9717 39.7562 43.9717 42.8371Z" fill="#5A935A"/>
<path d="M34.7363 34.207H34.7538C34.1119 36.5481 31.7777 38.288 28.9941 38.288C26.2105 38.288 23.8763 36.5481 23.2344 34.207H23.2577C24.9442 34.9238 26.905 35.5423 28.9941 35.5423C31.0833 35.5423 33.0498 34.918 34.7363 34.207Z" fill="#3C793E"/>
</g>
<path d="M29 0L23 5.80645H26.6V12H31.4V5.80645H35L29 0Z" fill="#3D7C40"/>
<defs>
<clipPath id="clip0_2501_8855">
<rect width="58" height="32" fill="white" transform="translate(0 16)"/>
</clipPath>
</defs>
</svg>
