<svg width="41" height="46" viewBox="0 0 41 46" fill="none" xmlns="http://www.w3.org/2000/svg">
<path d="M2.57031 6.4C2.57031 6.39356 2.57084 6.37908 2.57987 6.35062C2.5895 6.32029 2.61152 6.26594 2.66159 6.18765C2.76633 6.02386 2.97328 5.78782 3.3487 5.50379C4.1106 4.92736 5.33962 4.32276 7.03773 3.77936C10.4111 2.69987 15.1959 2 20.5703 2C25.9447 2 30.7295 2.69987 34.1029 3.77936C35.801 4.32276 37.03 4.92736 37.7919 5.50379C38.1673 5.78782 38.3743 6.02386 38.479 6.18765C38.5291 6.26594 38.5511 6.32029 38.5608 6.35062C38.5698 6.37908 38.5703 6.39356 38.5703 6.4V23V39.6C38.5703 39.6064 38.5698 39.6209 38.5608 39.6494C38.5511 39.6797 38.5291 39.7341 38.479 39.8124C38.3743 39.9761 38.1673 40.2122 37.7919 40.4962C37.03 41.0726 35.801 41.6772 34.1029 42.2206C30.7295 43.3001 25.9447 44 20.5703 44C15.1959 44 10.4111 43.3001 7.03773 42.2206C5.33962 41.6772 4.1106 41.0726 3.3487 40.4962C2.97328 40.2122 2.76633 39.9761 2.66159 39.8124C2.61152 39.7341 2.5895 39.6797 2.57987 39.6494C2.57084 39.6209 2.57031 39.6064 2.57031 39.6V23V6.4Z" stroke="white" stroke-width="4"/>
<circle cx="11.0703" cy="19.5" r="2.5" fill="#3D7C40"/>
<circle cx="11.0703" cy="35.5" r="2.5" fill="#3D7C40"/>
</svg>
