<svg width="48" height="44" viewBox="0 0 48 44" fill="none" xmlns="http://www.w3.org/2000/svg">
<g clip-path="url(#clip0_879_15221)">
<path d="M12.3147 7.74219L4.42188 21.2928H20.2139L12.3147 7.74219Z" fill="white"/>
<path d="M20.2153 22.2193H4.41688C4.07952 22.2193 3.77399 22.0428 3.6085 21.7527C3.443 21.4627 3.443 21.1095 3.6085 20.8258L11.5077 7.2752C11.6732 6.98515 11.9851 6.80859 12.3161 6.80859C12.6535 6.80859 12.959 6.98515 13.1245 7.2752L21.0237 20.8258C21.1892 21.1158 21.1892 21.469 21.0237 21.7527C20.8582 22.0428 20.5463 22.2193 20.2153 22.2193ZM6.04 20.3655H18.5922L12.3161 9.59564L6.04 20.3655Z" fill="white"/>
<path d="M1.98728 43.2323C1.34439 43.2701 0.695144 42.9801 0.313232 42.4063C-0.259636 41.555 -0.0241239 40.4011 0.835178 39.8336L22.3814 25.6209C23.0879 25.148 24.0427 25.2174 24.6792 25.7912L30.5925 31.1257L38.9055 8.42575C39.2555 7.46731 40.3313 6.96287 41.3051 7.31598C42.279 7.66278 42.7819 8.72842 42.4254 9.69316L33.1577 34.9973C32.9413 35.5774 32.4511 36.0188 31.8464 36.1638C31.2481 36.3151 30.5989 36.1512 30.1342 35.735L23.2343 29.5114L2.90387 42.917C2.61744 43.1062 2.29918 43.2071 1.98091 43.226L1.98728 43.2323Z" fill="#5A935A"/>
<path d="M42.1795 0.215807L29.1372 12.8332C28.7171 13.243 28.8953 13.9493 29.4682 14.1069L47.017 18.9874C47.5835 19.145 48.1119 18.6343 47.9718 18.0668L43.4589 0.575223C43.3125 0.00772496 42.5996 -0.187747 42.1795 0.222113V0.215807Z" fill="#5A935A"/>
<path d="M13.2689 21.9883H11.3594V44.0009H13.2689V21.9883Z" fill="white"/>
</g>
<defs>
<clipPath id="clip0_879_15221">
<rect width="48" height="44" fill="white"/>
</clipPath>
</defs>
</svg>
