<svg width="54" height="56" viewBox="0 0 54 56" fill="none" xmlns="http://www.w3.org/2000/svg">
<path d="M27.8594 23.1739C27.8594 25.4791 22.2629 27.3478 15.3594 27.3478C8.45582 27.3478 2.85938 25.4791 2.85938 23.1739M27.8594 23.1739C27.8594 20.8687 22.2629 19 15.3594 19C8.45582 19 2.85938 20.8687 2.85938 23.1739M27.8594 23.1739V34M2.85938 23.1739V34M27.8594 34C27.8594 36.2332 22.2629 38.0435 15.3594 38.0435C8.45582 38.0435 2.85938 36.2332 2.85938 34M27.8594 34V44.8261C27.8594 47.1313 22.2629 49 15.3594 49C8.45582 49 2.85938 47.1313 2.85938 44.8261V34" stroke="white" stroke-width="4" stroke-linecap="round"/>
<path d="M39.8594 21C39.8594 19.8954 40.7548 19 41.8594 19C42.9639 19 43.8594 19.8954 43.8594 21H39.8594ZM29.8594 33H41.0594V37H29.8594V33ZM39.8594 34.2V21H43.8594V34.2H39.8594ZM41.0594 33C40.3966 33 39.8594 33.5373 39.8594 34.2H43.8594C43.8594 35.7464 42.6058 37 41.0594 37V33Z" fill="white"/>
<path d="M41.5085 2C38.1297 2 35.3563 4.67717 35.0485 7.90122C35.0149 8.2535 34.7842 8.55968 34.4613 8.70441C32.9253 9.39279 31.8594 10.9022 31.8594 12.6534C31.8594 15.054 33.8623 17 36.3331 17H38.9182H46.3331C48.1752 16.9148 51.8594 15.7557 51.8594 11.8011C51.8594 9.47243 50.3336 7.48998 48.2003 6.74604C47.9329 6.65278 47.719 6.44462 47.621 6.17891C46.7225 3.74276 44.3249 2 41.5085 2Z" fill="#3D7C40" stroke="#3D7C40" stroke-width="4" stroke-linecap="round"/>
</svg>
