<svg width="292" height="43" viewBox="0 0 292 43" fill="none" xmlns="http://www.w3.org/2000/svg">
<path d="M220.532 11.9203C220.5 12.1603 220.484 12.4403 220.484 12.7603C220.484 13.0803 220.5 13.3603 220.532 13.6003C220.58 14.1763 220.796 14.6403 221.18 14.9923C221.564 15.3443 222.075 15.5203 222.715 15.5203C223.243 15.5203 223.643 15.4483 223.915 15.3043C224.203 15.1443 224.435 14.9283 224.611 14.6563C224.691 14.5283 224.78 14.4163 224.876 14.3203C224.988 14.2243 225.131 14.1763 225.307 14.1763H228.452C228.628 14.1763 228.78 14.2403 228.908 14.3683C229.052 14.4963 229.116 14.6483 229.1 14.8243C229.084 15.0803 228.98 15.4563 228.788 15.9523C228.596 16.4483 228.259 16.9443 227.779 17.4403C227.299 17.9203 226.651 18.3443 225.835 18.7123C225.019 19.0643 223.979 19.2403 222.715 19.2403C221.819 19.2403 220.979 19.1123 220.195 18.8563C219.427 18.6003 218.748 18.2323 218.156 17.7523C217.58 17.2723 217.116 16.6963 216.764 16.0243C216.428 15.3363 216.244 14.5683 216.212 13.7203C216.196 13.4803 216.188 13.1603 216.188 12.7603C216.188 12.3603 216.196 12.0403 216.212 11.8003C216.244 10.9523 216.428 10.1923 216.764 9.52027C217.116 8.83227 217.58 8.24827 218.156 7.76827C218.748 7.28827 219.427 6.92027 220.195 6.66427C220.979 6.40827 221.819 6.28027 222.715 6.28027C223.979 6.28027 225.019 6.46427 225.835 6.83227C226.651 7.18427 227.299 7.60827 227.779 8.10427C228.259 8.58427 228.596 9.07227 228.788 9.56827C228.98 10.0643 229.084 10.4403 229.1 10.6963C229.116 10.8723 229.052 11.0243 228.908 11.1523C228.78 11.2803 228.628 11.3443 228.452 11.3443H225.307C225.131 11.3443 224.988 11.2963 224.876 11.2003C224.78 11.1043 224.691 10.9923 224.611 10.8643C224.435 10.5923 224.203 10.3843 223.915 10.2403C223.643 10.0803 223.243 10.0003 222.715 10.0003C222.075 10.0003 221.564 10.1763 221.18 10.5283C220.796 10.8803 220.58 11.3443 220.532 11.9203Z" fill="white"/>
<path d="M213.929 18.3525C213.929 18.5285 213.865 18.6805 213.737 18.8085C213.609 18.9365 213.457 19.0005 213.281 19.0005H210.257C210.081 19.0005 209.929 18.9365 209.801 18.8085C209.673 18.6805 209.609 18.5285 209.609 18.3525V7.16847C209.609 6.99247 209.673 6.84047 209.801 6.71247C209.929 6.58447 210.081 6.52047 210.257 6.52047H213.281C213.457 6.52047 213.609 6.58447 213.737 6.71247C213.865 6.84047 213.929 6.99247 213.929 7.16847V18.3525ZM213.929 4.55247C213.929 4.72847 213.865 4.88047 213.737 5.00847C213.609 5.13647 213.457 5.20047 213.281 5.20047H210.257C210.081 5.20047 209.929 5.13647 209.801 5.00847C209.673 4.88047 209.609 4.72847 209.609 4.55247V2.12847C209.609 1.95247 209.673 1.80047 209.801 1.67247C209.929 1.54447 210.081 1.48047 210.257 1.48047H213.281C213.457 1.48047 213.609 1.54447 213.737 1.67247C213.865 1.80047 213.929 1.95247 213.929 2.12847V4.55247Z" fill="white"/>
<path d="M61.248 28.97C60.7813 28.97 60.3567 29.026 59.974 29.138C59.5913 29.2407 59.246 29.362 58.938 29.502L58.42 28.452C58.8027 28.2653 59.2413 28.1207 59.736 28.018C60.2307 27.9153 60.7393 27.864 61.262 27.864C62.0647 27.864 62.76 27.99 63.348 28.242C63.9453 28.4847 64.44 28.83 64.832 29.278C65.224 29.726 65.5133 30.2533 65.7 30.86C65.896 31.4573 65.994 32.1153 65.994 32.834C65.994 33.926 65.8167 34.8687 65.462 35.662C65.1073 36.4553 64.5707 37.0667 63.852 37.496C63.1427 37.9253 62.2467 38.14 61.164 38.14C60.5853 38.14 60.0953 38.1073 59.694 38.042C59.2927 37.9767 58.896 37.874 58.504 37.734V36.642C58.896 36.7447 59.2927 36.838 59.694 36.922C60.0953 36.9967 60.52 37.034 60.968 37.034C61.5747 37.034 62.102 36.9547 62.55 36.796C63.0073 36.628 63.39 36.39 63.698 36.082C64.006 35.7647 64.2393 35.3773 64.398 34.92C64.5567 34.4533 64.6453 33.9213 64.664 33.324H59.806V32.218H64.65C64.6033 31.7047 64.4913 31.2473 64.314 30.846C64.1367 30.4447 63.8987 30.104 63.6 29.824C63.3107 29.544 62.9653 29.334 62.564 29.194C62.172 29.0447 61.7333 28.97 61.248 28.97ZM74.0834 32.386C74.0834 32.8527 73.9434 33.2167 73.6634 33.478C73.3834 33.7393 73.024 33.9167 72.5854 34.01V34.066C73.052 34.1313 73.458 34.2993 73.8034 34.57C74.1487 34.8313 74.3214 35.242 74.3214 35.802C74.3214 36.1193 74.2607 36.4133 74.1394 36.684C74.0274 36.9547 73.85 37.188 73.6074 37.384C73.3647 37.58 73.052 37.734 72.6694 37.846C72.2867 37.9487 71.8247 38 71.2834 38H68.0494V30.496H71.2694C71.8014 30.496 72.2774 30.5567 72.6974 30.678C73.1267 30.79 73.4627 30.986 73.7054 31.266C73.9574 31.5367 74.0834 31.91 74.0834 32.386ZM73.0474 35.802C73.0474 35.3727 72.884 35.0647 72.5574 34.878C72.2307 34.6913 71.75 34.598 71.1154 34.598H69.2814V37.006H71.1434C71.7594 37.006 72.2307 36.9173 72.5574 36.74C72.884 36.5533 73.0474 36.2407 73.0474 35.802ZM72.8374 32.54C72.8374 32.1853 72.7067 31.9287 72.4454 31.77C72.1934 31.602 71.778 31.518 71.1994 31.518H69.2814V33.576H70.9754C71.582 33.576 72.044 33.492 72.3614 33.324C72.6787 33.156 72.8374 32.8947 72.8374 32.54ZM82.6398 34.234C82.6398 34.8593 82.5558 35.4147 82.3878 35.9C82.2291 36.376 81.9958 36.782 81.6878 37.118C81.3891 37.454 81.0204 37.7107 80.5818 37.888C80.1524 38.056 79.6718 38.14 79.1398 38.14C78.6451 38.14 78.1878 38.056 77.7678 37.888C77.3478 37.7107 76.9838 37.454 76.6758 37.118C76.3678 36.782 76.1251 36.376 75.9478 35.9C75.7798 35.4147 75.6958 34.8593 75.6958 34.234C75.6958 33.4033 75.8358 32.7033 76.1158 32.134C76.3958 31.5553 76.7971 31.1167 77.3198 30.818C77.8424 30.51 78.4631 30.356 79.1818 30.356C79.8631 30.356 80.4604 30.51 80.9738 30.818C81.4964 31.1167 81.9024 31.5553 82.1918 32.134C82.4904 32.7033 82.6398 33.4033 82.6398 34.234ZM76.9698 34.234C76.9698 34.822 77.0444 35.3353 77.1938 35.774C77.3524 36.2033 77.5951 36.5347 77.9218 36.768C78.2484 37.0013 78.6638 37.118 79.1678 37.118C79.6718 37.118 80.0871 37.0013 80.4138 36.768C80.7404 36.5347 80.9784 36.2033 81.1278 35.774C81.2864 35.3353 81.3658 34.822 81.3658 34.234C81.3658 33.6367 81.2864 33.128 81.1278 32.708C80.9691 32.288 80.7264 31.966 80.3998 31.742C80.0824 31.5087 79.6671 31.392 79.1538 31.392C78.3884 31.392 77.8331 31.644 77.4878 32.148C77.1424 32.652 76.9698 33.3473 76.9698 34.234ZM90.3043 38H89.0583V31.518H86.8463C86.753 32.7033 86.6363 33.716 86.4963 34.556C86.3563 35.3867 86.179 36.0633 85.9643 36.586C85.7497 37.1087 85.493 37.4913 85.1943 37.734C84.8957 37.9767 84.5457 38.098 84.1443 38.098C84.023 38.098 83.9017 38.0887 83.7803 38.07C83.6683 38.0607 83.575 38.0373 83.5003 38V37.076C83.5563 37.0947 83.617 37.1087 83.6823 37.118C83.7477 37.1273 83.813 37.132 83.8783 37.132C84.0837 37.132 84.2703 37.048 84.4383 36.88C84.6063 36.712 84.7557 36.4553 84.8863 36.11C85.0263 35.7647 85.1523 35.3307 85.2643 34.808C85.3763 34.276 85.4743 33.6507 85.5583 32.932C85.6423 32.2133 85.717 31.4013 85.7823 30.496H90.3043V38ZM102.43 34.234C102.43 35.0647 102.295 35.774 102.024 36.362C101.753 36.9407 101.371 37.384 100.876 37.692C100.381 37.9907 99.7934 38.14 99.1121 38.14C98.4774 38.14 97.9221 38.0093 97.4461 37.748C96.9701 37.4773 96.5921 37.0853 96.3121 36.572C96.0321 36.0493 95.8688 35.41 95.8221 34.654H93.9181V38H92.6861V30.496H93.9181V33.618H95.8361C95.9014 32.9087 96.0741 32.316 96.3541 31.84C96.6434 31.3547 97.0214 30.986 97.4881 30.734C97.9641 30.482 98.5148 30.356 99.1401 30.356C99.7841 30.356 100.353 30.51 100.848 30.818C101.343 31.1167 101.73 31.5553 102.01 32.134C102.29 32.7033 102.43 33.4033 102.43 34.234ZM97.0821 34.234C97.0821 34.8593 97.1521 35.3867 97.2921 35.816C97.4414 36.2453 97.6654 36.572 97.9641 36.796C98.2628 37.0107 98.6501 37.118 99.1261 37.118C99.6021 37.118 99.9894 37.0107 100.288 36.796C100.587 36.572 100.806 36.2453 100.946 35.816C101.086 35.3867 101.156 34.8593 101.156 34.234C101.156 33.6087 101.086 33.086 100.946 32.666C100.806 32.246 100.587 31.9287 100.288 31.714C99.9894 31.4993 99.6021 31.392 99.1261 31.392C98.6501 31.392 98.2628 31.4993 97.9641 31.714C97.6654 31.9287 97.4414 32.246 97.2921 32.666C97.1521 33.086 97.0821 33.6087 97.0821 34.234ZM111.795 40.604H110.591V38H104.389V30.496H105.621V36.964H109.499V30.496H110.731V36.978H111.795V40.604ZM114.397 35.074C114.397 35.158 114.392 35.2793 114.383 35.438C114.383 35.5873 114.378 35.7507 114.369 35.928C114.36 36.096 114.35 36.2593 114.341 36.418C114.332 36.5673 114.322 36.6887 114.313 36.782L118.331 30.496H119.843V38H118.695V33.576C118.695 33.4267 118.695 33.2307 118.695 32.988C118.704 32.7453 118.714 32.5073 118.723 32.274C118.732 32.0313 118.742 31.8493 118.751 31.728L114.761 38H113.235V30.496H114.397V35.074ZM122.693 38H121.265L123.407 34.85C123.118 34.7753 122.838 34.6587 122.567 34.5C122.296 34.332 122.077 34.1033 121.909 33.814C121.741 33.5153 121.657 33.1467 121.657 32.708C121.657 31.9893 121.9 31.4433 122.385 31.07C122.87 30.6873 123.514 30.496 124.317 30.496H127.677V38H126.445V35.018H124.625L122.693 38ZM122.847 32.722C122.847 33.1513 123.006 33.4733 123.323 33.688C123.65 33.8933 124.102 33.996 124.681 33.996H126.445V31.518H124.443C123.874 31.518 123.463 31.63 123.211 31.854C122.968 32.078 122.847 32.3673 122.847 32.722ZM139.722 32.386C139.722 32.8527 139.582 33.2167 139.302 33.478C139.022 33.7393 138.663 33.9167 138.224 34.01V34.066C138.691 34.1313 139.097 34.2993 139.442 34.57C139.787 34.8313 139.96 35.242 139.96 35.802C139.96 36.1193 139.899 36.4133 139.778 36.684C139.666 36.9547 139.489 37.188 139.246 37.384C139.003 37.58 138.691 37.734 138.308 37.846C137.925 37.9487 137.463 38 136.922 38H133.688V30.496H136.908C137.44 30.496 137.916 30.5567 138.336 30.678C138.765 30.79 139.101 30.986 139.344 31.266C139.596 31.5367 139.722 31.91 139.722 32.386ZM138.686 35.802C138.686 35.3727 138.523 35.0647 138.196 34.878C137.869 34.6913 137.389 34.598 136.754 34.598H134.92V37.006H136.782C137.398 37.006 137.869 36.9173 138.196 36.74C138.523 36.5533 138.686 36.2407 138.686 35.802ZM138.476 32.54C138.476 32.1853 138.345 31.9287 138.084 31.77C137.832 31.602 137.417 31.518 136.838 31.518H134.92V33.576H136.614C137.221 33.576 137.683 33.492 138 33.324C138.317 33.156 138.476 32.8947 138.476 32.54ZM148.233 30.37C149.148 30.37 149.825 30.5707 150.263 30.972C150.702 31.3733 150.921 32.0127 150.921 32.89V38H150.025L149.787 36.936H149.731C149.517 37.2067 149.293 37.4353 149.059 37.622C148.835 37.7993 148.574 37.93 148.275 38.014C147.986 38.098 147.631 38.14 147.211 38.14C146.763 38.14 146.357 38.0607 145.993 37.902C145.639 37.7433 145.359 37.5007 145.153 37.174C144.948 36.838 144.845 36.418 144.845 35.914C144.845 35.1673 145.139 34.5933 145.727 34.192C146.315 33.7813 147.221 33.5573 148.443 33.52L149.717 33.478V33.03C149.717 32.4047 149.582 31.9707 149.311 31.728C149.041 31.4853 148.658 31.364 148.163 31.364C147.771 31.364 147.398 31.4247 147.043 31.546C146.689 31.658 146.357 31.7887 146.049 31.938L145.671 31.014C145.998 30.8367 146.385 30.6873 146.833 30.566C147.281 30.4353 147.748 30.37 148.233 30.37ZM148.597 34.374C147.664 34.4113 147.015 34.5607 146.651 34.822C146.297 35.0833 146.119 35.452 146.119 35.928C146.119 36.348 146.245 36.656 146.497 36.852C146.759 37.048 147.09 37.146 147.491 37.146C148.126 37.146 148.653 36.9733 149.073 36.628C149.493 36.2733 149.703 35.732 149.703 35.004V34.332L148.597 34.374ZM154.471 30.496V33.618H158.545V30.496H159.777V38H158.545V34.654H154.471V38H153.239V30.496H154.471ZM164.995 30.37C165.91 30.37 166.586 30.5707 167.025 30.972C167.464 31.3733 167.683 32.0127 167.683 32.89V38H166.787L166.549 36.936H166.493C166.278 37.2067 166.054 37.4353 165.821 37.622C165.597 37.7993 165.336 37.93 165.037 38.014C164.748 38.098 164.393 38.14 163.973 38.14C163.525 38.14 163.119 38.0607 162.755 37.902C162.4 37.7433 162.12 37.5007 161.915 37.174C161.71 36.838 161.607 36.418 161.607 35.914C161.607 35.1673 161.901 34.5933 162.489 34.192C163.077 33.7813 163.982 33.5573 165.205 33.52L166.479 33.478V33.03C166.479 32.4047 166.344 31.9707 166.073 31.728C165.802 31.4853 165.42 31.364 164.925 31.364C164.533 31.364 164.16 31.4247 163.805 31.546C163.45 31.658 163.119 31.7887 162.811 31.938L162.433 31.014C162.76 30.8367 163.147 30.6873 163.595 30.566C164.043 30.4353 164.51 30.37 164.995 30.37ZM165.359 34.374C164.426 34.4113 163.777 34.5607 163.413 34.822C163.058 35.0833 162.881 35.452 162.881 35.928C162.881 36.348 163.007 36.656 163.259 36.852C163.52 37.048 163.852 37.146 164.253 37.146C164.888 37.146 165.415 36.9733 165.835 36.628C166.255 36.2733 166.465 35.732 166.465 35.004V34.332L165.359 34.374ZM175.713 38H174.467V31.518H172.255C172.161 32.7033 172.045 33.716 171.905 34.556C171.765 35.3867 171.587 36.0633 171.373 36.586C171.158 37.1087 170.901 37.4913 170.603 37.734C170.304 37.9767 169.954 38.098 169.553 38.098C169.431 38.098 169.31 38.0887 169.189 38.07C169.077 38.0607 168.983 38.0373 168.909 38V37.076C168.965 37.0947 169.025 37.1087 169.091 37.118C169.156 37.1273 169.221 37.132 169.287 37.132C169.492 37.132 169.679 37.048 169.847 36.88C170.015 36.712 170.164 36.4553 170.295 36.11C170.435 35.7647 170.561 35.3307 170.673 34.808C170.785 34.276 170.883 33.6507 170.967 32.932C171.051 32.2133 171.125 31.4013 171.191 30.496H175.713V38ZM179.256 35.074C179.256 35.158 179.252 35.2793 179.242 35.438C179.242 35.5873 179.238 35.7507 179.228 35.928C179.219 36.096 179.21 36.2593 179.2 36.418C179.191 36.5673 179.182 36.6887 179.172 36.782L183.19 30.496H184.702V38H183.554V33.576C183.554 33.4267 183.554 33.2307 183.554 32.988C183.564 32.7453 183.573 32.5073 183.582 32.274C183.592 32.0313 183.601 31.8493 183.61 31.728L179.62 38H178.094V30.496H179.256V35.074ZM189.064 30.356C189.634 30.356 190.128 30.4353 190.548 30.594C190.968 30.7433 191.295 30.9673 191.528 31.266C191.762 31.5553 191.878 31.91 191.878 32.33C191.878 32.7873 191.752 33.1513 191.5 33.422C191.248 33.6833 190.903 33.8747 190.464 33.996V34.052C190.763 34.136 191.038 34.2527 191.29 34.402C191.542 34.5513 191.743 34.7473 191.892 34.99C192.051 35.2327 192.13 35.5453 192.13 35.928C192.13 36.3387 192.014 36.712 191.78 37.048C191.556 37.384 191.206 37.65 190.73 37.846C190.264 38.042 189.662 38.14 188.924 38.14C188.57 38.14 188.229 38.1213 187.902 38.084C187.585 38.0467 187.296 37.9907 187.034 37.916C186.782 37.8413 186.558 37.7527 186.362 37.65V36.544C186.68 36.6933 187.053 36.8287 187.482 36.95C187.921 37.0713 188.397 37.132 188.91 37.132C189.284 37.132 189.62 37.09 189.918 37.006C190.226 36.922 190.469 36.7913 190.646 36.614C190.824 36.4273 190.912 36.1753 190.912 35.858C190.912 35.5687 190.833 35.3353 190.674 35.158C190.516 34.9713 190.278 34.8313 189.96 34.738C189.652 34.6447 189.256 34.598 188.77 34.598H187.762V33.59H188.574C189.218 33.59 189.732 33.506 190.114 33.338C190.506 33.1607 190.702 32.862 190.702 32.442C190.702 32.0873 190.553 31.8213 190.254 31.644C189.965 31.4667 189.545 31.378 188.994 31.378C188.584 31.378 188.22 31.42 187.902 31.504C187.594 31.5787 187.254 31.6953 186.88 31.854L186.446 30.874C186.848 30.6967 187.268 30.566 187.706 30.482C188.145 30.398 188.598 30.356 189.064 30.356ZM196.852 30.356C197.496 30.356 198.046 30.496 198.504 30.776C198.97 31.056 199.325 31.4527 199.568 31.966C199.82 32.47 199.946 33.0627 199.946 33.744V34.486H194.808C194.826 35.3353 195.041 35.984 195.452 36.432C195.872 36.8707 196.455 37.09 197.202 37.09C197.678 37.09 198.098 37.048 198.462 36.964C198.835 36.8707 199.218 36.74 199.61 36.572V37.65C199.227 37.818 198.849 37.9393 198.476 38.014C198.102 38.098 197.659 38.14 197.146 38.14C196.436 38.14 195.806 37.9953 195.256 37.706C194.714 37.4167 194.29 36.9873 193.982 36.418C193.683 35.8393 193.534 35.1347 193.534 34.304C193.534 33.4827 193.669 32.778 193.94 32.19C194.22 31.602 194.607 31.1493 195.102 30.832C195.606 30.5147 196.189 30.356 196.852 30.356ZM196.838 31.364C196.25 31.364 195.783 31.5553 195.438 31.938C195.102 32.3113 194.901 32.834 194.836 33.506H198.658C198.658 33.0767 198.592 32.7033 198.462 32.386C198.331 32.0687 198.13 31.8213 197.86 31.644C197.598 31.4573 197.258 31.364 196.838 31.364ZM209.931 30.496H211.275L208.069 34.108L211.541 38H210.113L206.725 34.192V38H205.493V30.496H206.725V34.136L209.931 30.496ZM219.153 34.234C219.153 34.8593 219.069 35.4147 218.901 35.9C218.743 36.376 218.509 36.782 218.201 37.118C217.903 37.454 217.534 37.7107 217.095 37.888C216.666 38.056 216.185 38.14 215.653 38.14C215.159 38.14 214.701 38.056 214.281 37.888C213.861 37.7107 213.497 37.454 213.189 37.118C212.881 36.782 212.639 36.376 212.461 35.9C212.293 35.4147 212.209 34.8593 212.209 34.234C212.209 33.4033 212.349 32.7033 212.629 32.134C212.909 31.5553 213.311 31.1167 213.833 30.818C214.356 30.51 214.977 30.356 215.695 30.356C216.377 30.356 216.974 30.51 217.487 30.818C218.01 31.1167 218.416 31.5553 218.705 32.134C219.004 32.7033 219.153 33.4033 219.153 34.234ZM213.483 34.234C213.483 34.822 213.558 35.3353 213.707 35.774C213.866 36.2033 214.109 36.5347 214.435 36.768C214.762 37.0013 215.177 37.118 215.681 37.118C216.185 37.118 216.601 37.0013 216.927 36.768C217.254 36.5347 217.492 36.2033 217.641 35.774C217.8 35.3353 217.879 34.822 217.879 34.234C217.879 33.6367 217.8 33.128 217.641 32.708C217.483 32.288 217.24 31.966 216.913 31.742C216.596 31.5087 216.181 31.392 215.667 31.392C214.902 31.392 214.347 31.644 214.001 32.148C213.656 32.652 213.483 33.3473 213.483 34.234ZM222.338 30.496V33.618H226.412V30.496H227.644V38H226.412V34.654H222.338V38H221.106V30.496H222.338ZM234.458 30.496H235.802L232.596 34.108L236.068 38H234.64L231.252 34.192V38H230.02V30.496H231.252V34.136L234.458 30.496ZM236.254 30.496H237.57L239.194 34.766C239.288 35.018 239.372 35.2607 239.446 35.494C239.53 35.7273 239.605 35.956 239.67 36.18C239.736 36.3947 239.787 36.6047 239.824 36.81H239.88C239.936 36.5767 240.025 36.2733 240.146 35.9C240.268 35.5173 240.394 35.1347 240.524 34.752L242.05 30.496H243.38L240.146 39.036C239.969 39.5027 239.759 39.9087 239.516 40.254C239.283 40.6087 238.994 40.8793 238.648 41.066C238.312 41.262 237.902 41.36 237.416 41.36C237.192 41.36 236.996 41.346 236.828 41.318C236.66 41.2993 236.516 41.276 236.394 41.248V40.268C236.497 40.2867 236.618 40.3053 236.758 40.324C236.908 40.3427 237.062 40.352 237.22 40.352C237.51 40.352 237.757 40.296 237.962 40.184C238.177 40.0813 238.359 39.9273 238.508 39.722C238.658 39.526 238.784 39.2927 238.886 39.022L239.278 38.028L236.254 30.496ZM248.137 30.356C249.061 30.356 249.803 30.678 250.363 31.322C250.932 31.966 251.217 32.9367 251.217 34.234C251.217 35.0833 251.086 35.802 250.825 36.39C250.573 36.9687 250.214 37.4073 249.747 37.706C249.29 37.9953 248.748 38.14 248.123 38.14C247.74 38.14 247.4 38.0887 247.101 37.986C246.802 37.8833 246.546 37.7527 246.331 37.594C246.126 37.426 245.948 37.244 245.799 37.048H245.715C245.734 37.2067 245.752 37.4073 245.771 37.65C245.79 37.8927 245.799 38.1027 245.799 38.28V41.36H244.567V30.496H245.575L245.743 31.518H245.799C245.948 31.3033 246.126 31.1073 246.331 30.93C246.546 30.7527 246.798 30.6127 247.087 30.51C247.386 30.4073 247.736 30.356 248.137 30.356ZM247.913 31.392C247.409 31.392 247.003 31.49 246.695 31.686C246.387 31.8727 246.163 32.1573 246.023 32.54C245.883 32.9227 245.808 33.408 245.799 33.996V34.234C245.799 34.85 245.864 35.3727 245.995 35.802C246.126 36.2313 246.345 36.558 246.653 36.782C246.97 37.006 247.4 37.118 247.941 37.118C248.398 37.118 248.772 36.992 249.061 36.74C249.36 36.488 249.579 36.1473 249.719 35.718C249.868 35.2793 249.943 34.78 249.943 34.22C249.943 33.3613 249.775 32.6753 249.439 32.162C249.112 31.6487 248.604 31.392 247.913 31.392ZM256.078 30.356C256.722 30.356 257.273 30.496 257.73 30.776C258.197 31.056 258.552 31.4527 258.794 31.966C259.046 32.47 259.172 33.0627 259.172 33.744V34.486H254.034C254.053 35.3353 254.268 35.984 254.678 36.432C255.098 36.8707 255.682 37.09 256.428 37.09C256.904 37.09 257.324 37.048 257.688 36.964C258.062 36.8707 258.444 36.74 258.836 36.572V37.65C258.454 37.818 258.076 37.9393 257.702 38.014C257.329 38.098 256.886 38.14 256.372 38.14C255.663 38.14 255.033 37.9953 254.482 37.706C253.941 37.4167 253.516 36.9873 253.208 36.418C252.91 35.8393 252.76 35.1347 252.76 34.304C252.76 33.4827 252.896 32.778 253.166 32.19C253.446 31.602 253.834 31.1493 254.328 30.832C254.832 30.5147 255.416 30.356 256.078 30.356ZM256.064 31.364C255.476 31.364 255.01 31.5553 254.664 31.938C254.328 32.3113 254.128 32.834 254.062 33.506H257.884C257.884 33.0767 257.819 32.7033 257.688 32.386C257.558 32.0687 257.357 31.8213 257.086 31.644C256.825 31.4573 256.484 31.364 256.064 31.364ZM262.315 30.496V33.618H266.389V30.496H267.621V38H266.389V34.654H262.315V38H261.083V30.496H262.315ZM275.177 31.532H272.727V38H271.509V31.532H269.087V30.496H275.177V31.532ZM283.042 34.234C283.042 34.8593 282.958 35.4147 282.79 35.9C282.631 36.376 282.398 36.782 282.09 37.118C281.791 37.454 281.423 37.7107 280.984 37.888C280.555 38.056 280.074 38.14 279.542 38.14C279.047 38.14 278.59 38.056 278.17 37.888C277.75 37.7107 277.386 37.454 277.078 37.118C276.77 36.782 276.527 36.376 276.35 35.9C276.182 35.4147 276.098 34.8593 276.098 34.234C276.098 33.4033 276.238 32.7033 276.518 32.134C276.798 31.5553 277.199 31.1167 277.722 30.818C278.245 30.51 278.865 30.356 279.584 30.356C280.265 30.356 280.863 30.51 281.376 30.818C281.899 31.1167 282.305 31.5553 282.594 32.134C282.893 32.7033 283.042 33.4033 283.042 34.234ZM277.372 34.234C277.372 34.822 277.447 35.3353 277.596 35.774C277.755 36.2033 277.997 36.5347 278.324 36.768C278.651 37.0013 279.066 37.118 279.57 37.118C280.074 37.118 280.489 37.0013 280.816 36.768C281.143 36.5347 281.381 36.2033 281.53 35.774C281.689 35.3353 281.768 34.822 281.768 34.234C281.768 33.6367 281.689 33.128 281.53 32.708C281.371 32.288 281.129 31.966 280.802 31.742C280.485 31.5087 280.069 31.392 279.556 31.392C278.791 31.392 278.235 31.644 277.89 32.148C277.545 32.652 277.372 33.3473 277.372 34.234ZM291.029 32.386C291.029 32.8527 290.889 33.2167 290.609 33.478C290.329 33.7393 289.969 33.9167 289.531 34.01V34.066C289.997 34.1313 290.403 34.2993 290.749 34.57C291.094 34.8313 291.267 35.242 291.267 35.802C291.267 36.1193 291.206 36.4133 291.085 36.684C290.973 36.9547 290.795 37.188 290.553 37.384C290.31 37.58 289.997 37.734 289.615 37.846C289.232 37.9487 288.77 38 288.229 38H284.995V30.496H288.215C288.747 30.496 289.223 30.5567 289.643 30.678C290.072 30.79 290.408 30.986 290.651 31.266C290.903 31.5367 291.029 31.91 291.029 32.386ZM289.993 35.802C289.993 35.3727 289.829 35.0647 289.503 34.878C289.176 34.6913 288.695 34.598 288.061 34.598H286.227V37.006H288.089C288.705 37.006 289.176 36.9173 289.503 36.74C289.829 36.5533 289.993 36.2407 289.993 35.802ZM289.783 32.54C289.783 32.1853 289.652 31.9287 289.391 31.77C289.139 31.602 288.723 31.518 288.145 31.518H286.227V33.576H287.921C288.527 33.576 288.989 33.492 289.307 33.324C289.624 33.156 289.783 32.8947 289.783 32.54Z" fill="white"/>
<path d="M203.978 14.128C203.978 14.496 204.058 14.784 204.218 14.992C204.378 15.184 204.642 15.28 205.01 15.28H206.93C207.106 15.28 207.258 15.344 207.386 15.472C207.514 15.6 207.578 15.752 207.578 15.928V18.352C207.578 18.528 207.514 18.68 207.386 18.808C207.258 18.936 207.106 19 206.93 19H204.65C203.898 19 203.21 18.896 202.586 18.688C201.978 18.464 201.458 18.152 201.026 17.752C200.594 17.336 200.258 16.84 200.018 16.264C199.778 15.672 199.658 15.008 199.658 14.272V10.24H197.882C197.706 10.24 197.554 10.176 197.426 10.048C197.298 9.91996 197.234 9.76796 197.234 9.59196V7.16796C197.234 6.99196 197.298 6.83996 197.426 6.71196C197.554 6.58396 197.706 6.51996 197.882 6.51996H199.658V2.60796C199.658 2.43196 199.722 2.27996 199.85 2.15196C199.978 2.02396 200.13 1.95996 200.306 1.95996H203.33C203.506 1.95996 203.658 2.02396 203.786 2.15196C203.914 2.27996 203.978 2.43196 203.978 2.60796V6.51996H206.69C206.866 6.51996 207.018 6.58396 207.146 6.71196C207.274 6.83996 207.338 6.99196 207.338 7.16796V9.59196C207.338 9.76796 207.274 9.91996 207.146 10.048C207.018 10.176 206.866 10.24 206.69 10.24H203.978V14.128Z" fill="white"/>
<path d="M189.721 22.9835C189.673 23.1115 189.593 23.2395 189.481 23.3675C189.369 23.4955 189.217 23.5595 189.025 23.5595H185.881C185.721 23.5595 185.585 23.5035 185.473 23.3915C185.361 23.2795 185.305 23.1435 185.305 22.9835C185.305 22.9195 185.313 22.8635 185.329 22.8155L187.153 18.5195L182.305 7.26353C182.289 7.21553 182.281 7.15953 182.281 7.09553C182.281 6.93553 182.337 6.79953 182.449 6.68753C182.561 6.57553 182.697 6.51953 182.857 6.51953H186.001C186.193 6.51953 186.345 6.58353 186.457 6.71153C186.569 6.83953 186.649 6.96753 186.697 7.09553L189.361 13.3355L192.001 7.09553C192.049 6.96753 192.129 6.83953 192.241 6.71153C192.353 6.58353 192.505 6.51953 192.697 6.51953H195.865C196.025 6.51953 196.161 6.57553 196.273 6.68753C196.385 6.79953 196.441 6.93553 196.441 7.09553C196.441 7.15953 196.433 7.21553 196.417 7.26353L189.721 22.9835Z" fill="white"/>
<path d="M180.437 18.352C180.437 18.528 180.373 18.68 180.245 18.808C180.117 18.936 179.965 19 179.789 19H176.765C176.589 19 176.437 18.936 176.309 18.808C176.181 18.68 176.117 18.528 176.117 18.352V2.60796C176.117 2.43196 176.181 2.27996 176.309 2.15196C176.437 2.02396 176.589 1.95996 176.765 1.95996H179.789C179.965 1.95996 180.117 2.02396 180.245 2.15196C180.373 2.27996 180.437 2.43196 180.437 2.60796V18.352Z" fill="white"/>
<path d="M161.172 15.4483C161.172 14.3923 161.572 13.5203 162.372 12.8323C163.188 12.1443 164.508 11.6403 166.332 11.3203L169.14 10.8403C169.14 10.4563 169.036 10.1443 168.828 9.90427C168.62 9.64827 168.26 9.52027 167.748 9.52027C167.38 9.52027 167.092 9.57627 166.884 9.68827C166.692 9.78427 166.548 9.87227 166.452 9.95227C166.308 10.0803 166.172 10.1603 166.044 10.1923C165.916 10.2243 165.764 10.2403 165.588 10.2403H162.54C162.38 10.2403 162.244 10.1923 162.132 10.0963C162.036 10.0003 161.996 9.87227 162.012 9.71227C162.044 9.34427 162.204 8.96027 162.492 8.56027C162.78 8.16027 163.172 7.79227 163.668 7.45627C164.18 7.12027 164.78 6.84027 165.468 6.61627C166.172 6.39227 166.932 6.28027 167.748 6.28027C168.724 6.28027 169.572 6.40027 170.292 6.64027C171.012 6.88027 171.604 7.21627 172.068 7.64827C172.548 8.06427 172.9 8.56827 173.124 9.16027C173.348 9.73627 173.46 10.3763 173.46 11.0803V18.3523C173.46 18.5283 173.396 18.6803 173.268 18.8083C173.14 18.9363 172.988 19.0003 172.812 19.0003H169.788C169.612 19.0003 169.46 18.9363 169.332 18.8083C169.204 18.6803 169.14 18.5283 169.14 18.3523V17.6803C168.756 18.1603 168.276 18.5443 167.7 18.8323C167.14 19.1043 166.396 19.2403 165.468 19.2403C164.78 19.2403 164.164 19.1443 163.62 18.9523C163.092 18.7603 162.644 18.4963 162.276 18.1603C161.924 17.8243 161.652 17.4243 161.46 16.9603C161.268 16.4963 161.172 15.9923 161.172 15.4483ZM166.644 16.0003C166.996 16.0003 167.324 15.9443 167.628 15.8323C167.932 15.7043 168.196 15.5363 168.42 15.3283C168.644 15.1203 168.82 14.8803 168.948 14.6083C169.076 14.3203 169.14 14.0163 169.14 13.6963L166.932 14.0323C166.5 14.1123 166.148 14.2483 165.876 14.4403C165.62 14.6323 165.492 14.8803 165.492 15.1843C165.492 15.4883 165.588 15.7043 165.78 15.8323C165.988 15.9443 166.276 16.0003 166.644 16.0003Z" fill="white"/>
<path d="M159.331 18.3523C159.331 18.5283 159.267 18.6803 159.139 18.8083C159.011 18.9363 158.859 19.0003 158.683 19.0003H155.659C155.483 19.0003 155.331 18.9363 155.203 18.8083C155.075 18.6803 155.011 18.5283 155.011 18.3523V12.2803C155.011 11.5923 154.843 11.0403 154.507 10.6243C154.171 10.2083 153.643 10.0003 152.923 10.0003C152.203 10.0003 151.675 10.2083 151.339 10.6243C151.019 11.0403 150.859 11.5923 150.859 12.2803V18.3523C150.859 18.5283 150.795 18.6803 150.667 18.8083C150.539 18.9363 150.387 19.0003 150.211 19.0003H147.187C147.011 19.0003 146.859 18.9363 146.731 18.8083C146.603 18.6803 146.539 18.5283 146.539 18.3523V7.16827C146.539 6.99227 146.603 6.84027 146.731 6.71227C146.859 6.58427 147.011 6.52027 147.187 6.52027H150.091C150.267 6.52027 150.419 6.58427 150.547 6.71227C150.675 6.84027 150.739 6.99227 150.739 7.16827V7.72027C150.867 7.56027 151.027 7.39227 151.219 7.21627C151.411 7.04027 151.643 6.88827 151.915 6.76027C152.187 6.61627 152.499 6.50427 152.851 6.42427C153.219 6.32827 153.643 6.28027 154.123 6.28027C154.891 6.28027 155.595 6.39227 156.235 6.61627C156.875 6.82427 157.419 7.15227 157.867 7.60027C158.331 8.04827 158.691 8.61627 158.947 9.30427C159.203 9.99227 159.331 10.8083 159.331 11.7523V18.3523Z" fill="white"/>
<path d="M131.594 15.4483C131.594 14.3923 131.994 13.5203 132.794 12.8323C133.61 12.1443 134.93 11.6403 136.754 11.3203L139.562 10.8403C139.562 10.4563 139.458 10.1443 139.25 9.90427C139.042 9.64827 138.682 9.52027 138.17 9.52027C137.802 9.52027 137.514 9.57627 137.306 9.68827C137.114 9.78427 136.97 9.87227 136.874 9.95227C136.73 10.0803 136.594 10.1603 136.466 10.1923C136.338 10.2243 136.186 10.2403 136.01 10.2403H132.962C132.802 10.2403 132.666 10.1923 132.554 10.0963C132.458 10.0003 132.418 9.87227 132.434 9.71227C132.466 9.34427 132.626 8.96027 132.914 8.56027C133.202 8.16027 133.594 7.79227 134.09 7.45627C134.602 7.12027 135.202 6.84027 135.89 6.61627C136.594 6.39227 137.354 6.28027 138.17 6.28027C139.146 6.28027 139.994 6.40027 140.714 6.64027C141.434 6.88027 142.026 7.21627 142.49 7.64827C142.97 8.06427 143.322 8.56827 143.546 9.16027C143.77 9.73627 143.882 10.3763 143.882 11.0803V18.3523C143.882 18.5283 143.818 18.6803 143.69 18.8083C143.562 18.9363 143.41 19.0003 143.234 19.0003H140.21C140.034 19.0003 139.882 18.9363 139.754 18.8083C139.626 18.6803 139.562 18.5283 139.562 18.3523V17.6803C139.178 18.1603 138.698 18.5443 138.122 18.8323C137.562 19.1043 136.818 19.2403 135.89 19.2403C135.202 19.2403 134.586 19.1443 134.042 18.9523C133.514 18.7603 133.066 18.4963 132.698 18.1603C132.346 17.8243 132.074 17.4243 131.882 16.9603C131.69 16.4963 131.594 15.9923 131.594 15.4483ZM137.066 16.0003C137.418 16.0003 137.746 15.9443 138.05 15.8323C138.354 15.7043 138.618 15.5363 138.842 15.3283C139.066 15.1203 139.242 14.8803 139.37 14.6083C139.498 14.3203 139.562 14.0163 139.562 13.6963L137.354 14.0323C136.922 14.1123 136.57 14.2483 136.298 14.4403C136.042 14.6323 135.914 14.8803 135.914 15.1843C135.914 15.4883 136.01 15.7043 136.202 15.8323C136.41 15.9443 136.698 16.0003 137.066 16.0003Z" fill="white"/>
<path d="M124.667 18.352C124.667 18.528 124.603 18.68 124.475 18.808C124.347 18.936 124.195 19 124.019 19H120.995C120.819 19 120.667 18.936 120.539 18.808C120.411 18.68 120.347 18.528 120.347 18.352V12.28C120.347 11.592 120.179 11.04 119.843 10.624C119.507 10.208 118.979 9.99996 118.259 9.99996C117.539 9.99996 117.011 10.208 116.675 10.624C116.355 11.04 116.195 11.592 116.195 12.28V18.352C116.195 18.528 116.131 18.68 116.003 18.808C115.875 18.936 115.723 19 115.547 19H112.523C112.347 19 112.195 18.936 112.067 18.808C111.939 18.68 111.875 18.528 111.875 18.352V2.60796C111.875 2.43196 111.939 2.27996 112.067 2.15196C112.195 2.02396 112.347 1.95996 112.523 1.95996H115.547C115.723 1.95996 115.875 2.02396 116.003 2.15196C116.131 2.27996 116.195 2.43196 116.195 2.60796V7.71996C116.467 7.38396 116.891 7.06396 117.467 6.75996C118.043 6.43996 118.707 6.27996 119.459 6.27996C120.227 6.27996 120.931 6.39196 121.571 6.61596C122.211 6.82396 122.755 7.15196 123.203 7.59996C123.667 8.04796 124.027 8.61596 124.283 9.30396C124.539 9.99196 124.667 10.808 124.667 11.752V18.352Z" fill="white"/>
<path d="M105.457 15.2563C105.457 15.0803 105.393 14.9443 105.265 14.8483C105.153 14.7523 104.953 14.6723 104.665 14.6083C104.377 14.5443 103.993 14.4803 103.513 14.4163C103.049 14.3523 102.465 14.2563 101.761 14.1283C100.545 13.9043 99.6092 13.4563 98.9532 12.7843C98.2972 12.1123 97.9692 11.2323 97.9692 10.1443C97.9692 9.60027 98.1052 9.09627 98.3772 8.63227C98.6492 8.16827 99.0252 7.76027 99.5052 7.40827C100.001 7.05627 100.593 6.78427 101.281 6.59227C101.969 6.38427 102.737 6.28027 103.585 6.28027C104.417 6.28027 105.185 6.38427 105.889 6.59227C106.593 6.78427 107.201 7.04027 107.713 7.36027C108.225 7.66427 108.625 8.02427 108.913 8.44027C109.217 8.84027 109.385 9.24027 109.417 9.64027C109.433 9.81627 109.369 9.96827 109.225 10.0963C109.097 10.2243 108.945 10.2883 108.769 10.2883H105.913C105.737 10.2883 105.593 10.2483 105.481 10.1683C105.385 10.0883 105.265 10.0003 105.121 9.90427C104.977 9.80827 104.785 9.72027 104.545 9.64027C104.321 9.56027 104.001 9.52027 103.585 9.52027C103.217 9.52027 102.905 9.57627 102.649 9.68827C102.409 9.78427 102.289 9.95227 102.289 10.1923C102.289 10.3683 102.329 10.5043 102.409 10.6003C102.489 10.6963 102.649 10.7763 102.889 10.8403C103.129 10.8883 103.465 10.9443 103.897 11.0083C104.329 11.0723 104.897 11.1603 105.601 11.2723C107.057 11.5123 108.113 12.0083 108.769 12.7603C109.441 13.4963 109.777 14.3443 109.777 15.3043C109.777 15.8483 109.641 16.3603 109.369 16.8403C109.097 17.3043 108.697 17.7203 108.169 18.0883C107.641 18.4403 107.001 18.7203 106.249 18.9283C105.497 19.1363 104.641 19.2403 103.681 19.2403C102.721 19.2403 101.873 19.1363 101.137 18.9283C100.417 18.7043 99.8092 18.4243 99.3132 18.0883C98.8172 17.7523 98.4332 17.3843 98.1612 16.9843C97.9052 16.5843 97.7612 16.1923 97.7292 15.8083C97.7132 15.6323 97.7692 15.4803 97.8972 15.3523C98.0412 15.2243 98.2012 15.1603 98.3772 15.1603H101.353C101.529 15.1603 101.657 15.2083 101.737 15.3043C101.817 15.3843 101.921 15.4803 102.049 15.5923C102.177 15.6883 102.361 15.7843 102.601 15.8803C102.841 15.9603 103.201 16.0003 103.681 16.0003C104.161 16.0003 104.577 15.9363 104.929 15.8083C105.281 15.6803 105.457 15.4963 105.457 15.2563Z" fill="white"/>
<path d="M87.57 14.1283C87.57 14.4963 87.634 14.8003 87.762 15.0403C87.906 15.2803 88.082 15.4723 88.29 15.6163C88.498 15.7603 88.73 15.8643 88.986 15.9283C89.242 15.9763 89.49 16.0003 89.73 16.0003C90.21 16.0003 90.586 15.9523 90.858 15.8563C91.146 15.7603 91.386 15.6243 91.578 15.4483C91.754 15.3043 91.882 15.2163 91.962 15.1843C92.042 15.1363 92.178 15.1123 92.37 15.1123H95.49C95.842 15.1123 96.018 15.2883 96.018 15.6403C96.018 15.8323 95.898 16.1283 95.658 16.5283C95.418 16.9123 95.042 17.3123 94.53 17.7283C94.034 18.1283 93.386 18.4803 92.586 18.7843C91.786 19.0883 90.834 19.2403 89.73 19.2403C88.69 19.2403 87.762 19.0963 86.946 18.8083C86.146 18.5043 85.466 18.0723 84.906 17.5123C84.362 16.9523 83.946 16.2723 83.658 15.4723C83.386 14.6723 83.25 13.7683 83.25 12.7603C83.25 11.8323 83.386 10.9763 83.658 10.1923C83.946 9.39227 84.362 8.70427 84.906 8.12827C85.466 7.55227 86.146 7.10427 86.946 6.78428C87.762 6.44827 88.69 6.28027 89.73 6.28027C90.898 6.28027 91.89 6.48027 92.706 6.88027C93.538 7.26427 94.21 7.76827 94.722 8.39227C95.25 9.01627 95.626 9.72027 95.85 10.5043C96.09 11.2723 96.21 12.0403 96.21 12.8083V13.4803C96.21 13.6563 96.146 13.8083 96.018 13.9363C95.89 14.0643 95.738 14.1283 95.562 14.1283H87.57ZM89.73 9.52027C89.058 9.52027 88.546 9.72027 88.194 10.1203C87.842 10.5203 87.634 10.9683 87.57 11.4643H91.89C91.826 10.9683 91.618 10.5203 91.266 10.1203C90.914 9.72027 90.402 9.52027 89.73 9.52027Z" fill="white"/>
<path d="M81.6339 6.51953C81.8099 6.51953 81.9619 6.58353 82.0899 6.71153C82.2179 6.83953 82.2819 6.99153 82.2819 7.16753V9.59153C82.2819 9.76753 82.2179 9.91953 82.0899 10.0475C81.9619 10.1755 81.8099 10.2395 81.6339 10.2395H79.4499C77.9779 10.2395 77.2419 10.9755 77.2419 12.4475V18.3515C77.2419 18.5275 77.1779 18.6795 77.0499 18.8075C76.9219 18.9355 76.7699 18.9995 76.5939 18.9995H73.5699C73.3939 18.9995 73.2419 18.9355 73.1139 18.8075C72.9859 18.6795 72.9219 18.5275 72.9219 18.3515V7.16753C72.9219 6.99153 72.9859 6.83953 73.1139 6.71153C73.2419 6.58353 73.3939 6.51953 73.5699 6.51953H76.3539C76.5299 6.51953 76.6819 6.58353 76.8099 6.71153C76.9379 6.83953 77.0019 6.99153 77.0019 7.16753V7.71953C77.3699 7.36753 77.8099 7.07953 78.3219 6.85553C78.8499 6.63153 79.4739 6.51953 80.1939 6.51953H81.6339Z" fill="white"/>
<path d="M70.2957 2.2002C70.4717 2.2002 70.6237 2.2642 70.7517 2.3922C70.8797 2.5202 70.9437 2.6722 70.9437 2.8482V5.3922C70.9437 5.5682 70.8797 5.7202 70.7517 5.8482C70.6237 5.9762 70.4717 6.0402 70.2957 6.0402H63.1197V9.3282H69.8157C69.9917 9.3282 70.1437 9.3922 70.2717 9.5202C70.3997 9.6482 70.4637 9.8002 70.4637 9.9762V12.5202C70.4637 12.6962 70.3997 12.8482 70.2717 12.9762C70.1437 13.1042 69.9917 13.1682 69.8157 13.1682H63.1197V18.3522C63.1197 18.5282 63.0557 18.6802 62.9277 18.8082C62.7997 18.9362 62.6477 19.0002 62.4717 19.0002H59.3277C59.1517 19.0002 58.9997 18.9362 58.8717 18.8082C58.7437 18.6802 58.6797 18.5282 58.6797 18.3522V2.8482C58.6797 2.6722 58.7437 2.5202 58.8717 2.3922C58.9997 2.2642 59.1517 2.2002 59.3277 2.2002H70.2957Z" fill="white"/>
<path d="M15.1455 1.66957C14.5455 2.6087 14.0545 3.49565 14.0545 3.65217C14.0545 3.8087 15.1455 5.7913 16.5091 8.03478L18.9636 12.1565L16.5091 16.1739L14 20.2435L14.9818 22.1217C15.8545 23.8957 16.0727 24 18.3636 24L20.8727 23.9478L24.3636 18.1043L27.8545 12.2609L26.6545 10.1739C26.0545 9.02609 25.5091 7.87826 25.5091 7.66957C25.5091 6.67826 26.6 8.03478 28.8364 11.7391L31.1818 15.7043L33.5818 15.5478C35.4909 15.4435 36.0909 15.1304 36.9636 13.8261L38 12.2087L34.3455 6.10435L30.6909 0H23.4364H16.2364L15.1455 1.66957ZM31.8909 4.01739C32.8727 5.68696 34.2909 8.03478 35.0545 9.23478L36.4727 11.4783H35.1091C33.9636 11.4783 33.3091 10.8 31.1818 7.30435L28.6727 3.13044H25.5091C23.7636 3.13044 22.1818 3.33913 22.0182 3.54783C21.9091 3.75652 22.7273 5.53044 23.9273 7.51304C25.0727 9.44348 26.0545 11.113 26.0545 11.2696C26.0545 11.3739 25.5091 11.4783 24.8 11.4783C23.8727 11.4783 23.1636 10.7478 21.8545 8.45217C20.8727 6.83478 19.4545 4.48696 18.6909 3.23478L17.2727 1.04348H23.7091H30.1455L31.8909 4.01739ZM19.7818 17.2174C18.0364 20.087 16.5636 22.4348 16.4545 22.4348C16.3455 22.4348 16.0182 21.9652 15.7455 21.4435C15.2545 20.6609 15.6364 19.6174 17.6545 16.2783L20.1091 12.0522L17.6 7.87826C15.4182 4.22609 15.2 3.6 15.8 2.66087C16.4 1.66957 16.7273 2.03478 19.6727 6.83478L22.8909 12.0522L19.7818 17.2174ZM30.4182 7.93044C32 10.5913 32.5455 12.0522 32.3273 12.887C31.8909 14.5565 31.3455 14.087 29 10.1217C27.9091 8.24348 26.6 6.57391 26.1091 6.41739C22.7818 5.47826 22.5091 4.17391 25.6727 4.17391H28.1273L30.4182 7.93044ZM23.7636 17.0609C22.2364 19.6174 20.7636 21.9652 20.4364 22.2783C19.8909 22.9565 17.8727 23.2174 17.8727 22.5913C17.8727 22.2261 22.6182 14.2957 23.4909 13.1478C23.7636 12.8348 24.5818 12.5217 25.2909 12.5217C26.5455 12.5217 26.4909 12.6783 23.7636 17.0609ZM35.8727 13.5652C35.5455 14.1913 34.7273 14.6087 33.9091 14.6087C32.7091 14.6087 32.6545 14.5043 33.1455 13.5652C33.4727 12.9391 34.2909 12.5217 35.1091 12.5217C36.3091 12.5217 36.3636 12.6261 35.8727 13.5652Z" fill="white"/>
<path d="M8.07818 9.84256C6.67138 12.1458 6.67138 12.3185 7.90233 14.3914C8.84019 15.946 9.19189 16.1188 11.5366 15.946C13.764 15.7733 14.3501 15.4854 15.2294 13.9883C16.2845 12.2033 16.2845 12.0882 15.0535 10.0729C13.9984 8.23032 13.5295 8 11.5366 8C9.54359 8 9.07466 8.2879 8.07818 9.84256ZM13.9398 10.3032C14.4674 11.3396 14.4088 11.4548 13.1192 11.4548C12.2399 11.4548 11.3607 10.9942 11.009 10.3032C10.4815 9.26676 10.5401 9.1516 11.8296 9.1516C12.7089 9.1516 13.5881 9.61224 13.9398 10.3032ZM10.1298 13.0095C9.77806 14.3914 9.71944 14.449 8.84019 13.5853C8.01956 12.7791 7.96094 12.4337 8.60573 11.0517C9.25051 9.61224 9.42636 9.55466 9.95391 10.4759C10.247 11.0517 10.3642 12.2033 10.1298 13.0095ZM13.9398 13.758C13.5881 14.449 12.7089 14.9096 11.8882 14.9096C10.5401 14.9096 10.4815 14.7944 11.1262 13.758C11.5366 13.1246 12.4744 12.6064 13.2364 12.6064C14.4088 12.6064 14.4674 12.7791 13.9398 13.758Z" fill="white"/>
<path d="M3.35162 24.0522L0 30.1043L3.30005 36.0522L6.65167 42H8.8689H11.0861L13.458 37.8261L15.8815 33.6522H20.6253H25.3692L26.2973 31.9304C27.2255 30.2609 27.2255 30.1043 26.3489 28.2783L25.4207 26.3478H18.5628H11.7049L10.158 28.8C7.7345 32.6609 8.35326 29.9478 10.8799 25.6696L13.1487 21.8087L12.0658 19.8783C11.0861 18.2087 10.7767 18 8.8689 18H6.7548L3.35162 24.0522ZM11.0861 20.087C11.6533 21.0261 11.6018 21.1304 10.5189 21.1304C9.33297 21.1304 8.09545 20.2957 8.09545 19.4609C8.09545 18.5739 10.4674 19.0957 11.0861 20.087ZM7.83763 21.1304C8.04388 21.8087 7.37356 23.4783 5.87822 26.1391L3.55787 30.1043L5.15634 32.9217C6.03291 34.487 6.90949 35.7391 7.06418 35.7391C7.21887 35.7391 8.40483 33.913 9.64235 31.7217C11.7564 27.9652 11.9111 27.8087 12.4268 28.9043C12.9424 30.1565 11.8596 32.6609 8.19857 38.5565L6.96105 40.5913L4.2282 35.687C2.73286 32.9739 1.39221 30.5739 1.34065 30.3652C1.18596 29.7391 6.60011 20.087 7.11574 20.087C7.322 20.087 7.63138 20.5565 7.83763 21.1304ZM10.6221 24.1043C10.0033 25.2 9.02359 26.8696 8.50795 27.7565C7.83763 28.9043 7.57981 30 7.78607 30.887C7.94076 31.7217 7.83763 32.713 7.57981 33.1304C7.11574 33.8087 6.96105 33.7565 6.23917 32.8696C4.69227 30.7826 4.84696 29.687 7.06418 25.8783C8.81733 22.9043 9.48766 22.1739 10.5189 22.1739H11.808L10.6221 24.1043ZM25.1114 27.6C25.1114 27.7043 25.266 28.1739 25.4207 28.6435C25.6786 29.3739 25.0082 29.4783 19.7488 29.4783C14.3346 29.4783 13.7674 29.3739 13.2518 28.4348C12.7361 27.4435 12.8393 27.3913 18.9238 27.3913C22.3269 27.3913 25.1114 27.4957 25.1114 27.6ZM25.627 30.887C25.5754 32.2435 24.4926 32.5565 19.955 32.713L15.0565 32.8696L12.8393 36.887C10.9314 40.2783 10.3642 40.9565 9.2814 40.9565H7.99232L9.38453 38.4522C10.2095 37.0957 11.5502 34.7478 12.4268 33.2348L14.0252 30.5217H19.8003C22.9973 30.5217 25.627 30.6783 25.627 30.887Z" fill="white"/>
<path d="M24.9863 19.9304L24 21.913L27.5616 27.7565L31.1233 33.6522H33.7534C35.2329 33.6522 36.4384 33.8609 36.4384 34.1739C36.4384 34.487 34.3562 34.6957 31.2329 34.6957H26.0274L25.0959 36.5217C24.2192 38.2435 24.2192 38.4522 25.0959 40.1739L26.0274 42H33.5342L41.0959 41.9478L44.5479 36.1043L48 30.313L47.0685 28.3304L46.137 26.4L40.8767 26.2435L35.6164 26.087L33.1507 22.0174C30.6849 18 30.6849 18 28.3836 18C26.2466 18 25.9726 18.1565 24.9863 19.9304ZM32.6027 23.2174L35.0685 27.3913H40C44.6575 27.3913 46.3014 27.8087 46.3014 29.0609C46.3014 29.2696 43.5068 29.4783 40.0548 29.4783H33.8082L31.3425 25.4087C27.3425 18.7304 27.4521 19.0435 28.8767 19.0435C29.863 19.0435 30.6301 19.9304 32.6027 23.2174ZM29.8082 25.0957C32.2192 29.1652 32.6575 30.2609 32.2192 31.2C31.726 32.1913 31.3425 31.7739 28.5479 27.2348C26.3562 23.7391 25.5342 21.8609 25.7534 21.1304C25.9726 20.5565 26.2466 20.087 26.4658 20.087C26.6849 20.087 28.1644 22.3304 29.8082 25.0957ZM46.3014 30.8348C46.3014 30.9913 44.9315 33.3391 43.2329 36.0522L40.2192 40.9565H33.9178C27.7808 40.9565 27.6712 40.9043 28.2192 39.913C28.7671 38.9739 29.3699 38.8696 33.9178 38.8696H39.0137L40.4384 36.313C41.2603 34.9043 41.9178 33.4957 41.9178 33.1826C41.9178 32.8174 40.3288 32.6087 37.2603 32.6087C32.7123 32.6087 32.6027 32.5565 33.2603 31.5652C33.9178 30.6261 34.5753 30.5217 40.1096 30.5217C43.5068 30.5217 46.3014 30.6783 46.3014 30.8348ZM40.274 34.1217C40.274 34.3826 39.8356 35.3217 39.3425 36.2087C38.3562 37.8261 38.3562 37.8261 33.589 37.8261C29.3699 37.8261 28.7123 37.7217 28.2192 36.7826C27.6712 35.7913 27.7808 35.7391 32.274 35.7391C36.3836 35.7391 37.0411 35.6348 37.5342 34.6957C38.137 33.6522 40.274 33.2348 40.274 34.1217ZM27.3425 37.6174C27.5068 38.0348 27.3973 38.9217 27.0137 39.5478L26.411 40.6957L25.863 39.5478C25.3151 38.3478 25.6438 36.7826 26.5205 36.7826C26.7945 36.7826 27.1781 37.1478 27.3425 37.6174Z" fill="white"/>
<path d="M15.822 37.6C14.726 39.6 14.726 39.4 15.822 41.35C16.5983 42.8 16.9636 43 18.6989 43C20.5255 43 20.7538 42.85 21.4388 41.2C22.2151 39.45 22.2151 39.35 21.2561 37.7C20.4342 36.25 20.0688 36 18.5162 36C16.9636 36 16.5983 36.25 15.822 37.6ZM20.3885 38C20.7995 38.85 20.7538 39 19.8405 39C19.2469 39 18.5162 38.55 18.1966 38C17.6942 37.1 17.7399 37 18.7902 37C19.4295 37 20.1145 37.4 20.3885 38ZM17.4659 40.55L16.8266 41.6L16.3243 40.55C15.9133 39.8 15.959 39.3 16.37 38.55C16.9179 37.6 16.9179 37.6 17.5573 38.55C18.0596 39.35 18.0596 39.65 17.4659 40.55ZM20.8451 40.4C20.8451 41.1 19.7948 42 18.9272 42C18.0139 42 17.9682 41.95 18.3792 40.8C18.6532 40 20.8451 39.65 20.8451 40.4Z" fill="white"/>
<path d="M37.0568 17.8286C35.6477 20.1143 35.6477 19.8857 37.0568 22.1143C38.0549 23.7714 38.5246 24 40.7557 24C43.1042 24 43.3978 23.8286 44.2785 21.9429C45.2766 19.9429 45.2766 19.8286 44.0436 17.9429C42.9868 16.2857 42.5171 16 40.5209 16C38.5246 16 38.0549 16.2857 37.0568 17.8286ZM42.9281 18.2857C43.4565 19.2571 43.3978 19.4286 42.2235 19.4286C41.4603 19.4286 40.5209 18.9143 40.1099 18.2857C39.464 17.2571 39.5227 17.1429 40.8731 17.1429C41.6951 17.1429 42.5758 17.6 42.9281 18.2857ZM39.1705 21.2L38.3485 22.4L37.7027 21.2C37.1742 20.3429 37.233 19.7714 37.7614 18.9143C38.4659 17.8286 38.4659 17.8286 39.2879 18.9143C39.9337 19.8286 39.9337 20.1714 39.1705 21.2ZM43.5152 21.0286C43.5152 21.8286 42.1648 22.8571 41.0493 22.8571C39.875 22.8571 39.8163 22.8 40.3447 21.4857C40.697 20.5714 43.5152 20.1714 43.5152 21.0286Z" fill="white"/>
</svg>
