<svg width="90" height="89" viewBox="0 0 90 89" fill="none" xmlns="http://www.w3.org/2000/svg">
<path d="M2.5 44.5C2.5 22.187 18.8056 4.12883 39.1864 2.60481C39.2541 2.59975 39.3116 2.617 39.3735 2.67742C39.4428 2.74505 39.5 2.85615 39.5 3V44.5V86C39.5 86.1452 39.4423 86.2565 39.3736 86.3236C39.3125 86.3833 39.256 86.4004 39.1886 86.3953C31.7768 85.8416 24.9213 83.1127 19.1844 78.7883C9.11256 71.1961 2.5 58.6902 2.5 44.5Z" stroke="white" stroke-width="5"/>
<path d="M50.8218 86.4009L50.9977 88.8947L50.8218 86.4009C50.7504 86.4059 50.6903 86.3869 50.6275 86.3255C50.5575 86.257 50.5 86.1451 50.5 86V50C50.5 49.7239 50.7239 49.5 51 49.5H87C87.1444 49.5 87.2562 49.5573 87.3249 49.6276C87.3868 49.6908 87.4058 49.7514 87.4008 49.8229C86.2882 65.5931 75.912 78.8164 61.6731 84.0702C58.255 85.3314 54.6134 86.1335 50.8218 86.4009Z" stroke="white" stroke-width="5"/>
<path d="M87.4007 39.1756C87.4057 39.2473 87.3865 39.3086 87.3242 39.3723C87.2552 39.443 87.1435 39.5 87 39.5H51C50.7239 39.5 50.5 39.2761 50.5 39V3C50.5 2.85653 50.557 2.74485 50.6277 2.67577C50.6914 2.61345 50.7527 2.59426 50.8244 2.59932C70.387 3.98015 86.0199 19.613 87.4007 39.1756Z" fill="#3D7C40" stroke="#3D7C40" stroke-width="5"/>
</svg>
