<svg width="36" height="57" viewBox="0 0 36 57" fill="none" xmlns="http://www.w3.org/2000/svg">
<path d="M23.7331 2.16578C20.5555 5.20382 14.4995 10.3654 21.3646 24.5095C21.6553 25.0205 21.2418 25.4217 20.9329 25.4217C20.624 25.4217 18.0262 24.9018 18.0262 24.9018C17.6317 24.5076 17.1532 24.1802 16.447 24.034L10.5501 22.951C9.81998 22.8069 9.47706 22.3163 9.25216 21.6162C5.39136 13.0302 6.44248 6.24407 12.5748 1.32035C13.5287 0.342892 14.5432 -0.111105 16.0944 0.0230457L23.0644 0.545843C23.9289 0.615201 24.2456 1.67583 23.7331 2.16578ZM23.9351 4.52962C22.9113 5.34231 21.5976 7.46045 21.5976 7.46045C21.3583 7.80156 21.341 8.19588 21.6299 8.66368C22.8123 10.3756 23.5059 12.1759 23.7847 14.0513C23.9674 14.569 24.2138 14.8253 25.0292 14.7723L34.1748 13.9475C34.7804 13.8425 34.9729 13.3534 34.9418 12.767C34.5121 8.26646 31.9288 4.7191 26.6826 1.43001C26.2609 1.13778 25.7852 1.41487 25.7604 1.92832C25.7604 1.92832 25.8626 2.99941 23.9351 4.52962ZM0.452833 24.0169L0.0172021 26.312C-0.0722364 26.8661 0.182663 27.376 0.885737 27.531L15.4289 30.2489C16.0364 30.3322 16.4084 29.974 16.5556 29.3621L16.9133 27.1817C17.0284 26.5472 16.8234 26.0782 16.2772 25.8907L1.56852 23.1992C1.0861 23.1017 0.573684 23.3342 0.452724 24.017L0.452833 24.0169ZM17.7592 30.1533L30.9896 32.6144C31.4879 32.7034 31.6748 32.4617 31.781 32.0591L32.0831 30.2737C32.1735 29.752 32.1273 29.4207 31.6574 29.3203L18.3403 26.8468C17.965 26.7559 17.6741 26.8906 17.5984 27.3013L17.2509 29.2369C17.165 29.6628 17.2173 30.0002 17.7592 30.1535V30.1533ZM32.9446 32.7302L35.5613 32.1629C36.1143 32.0255 36.1057 31.5382 35.7511 31.3602L33.3785 29.8517C33.1303 29.6582 32.8401 29.7322 32.7653 30.0256L32.3804 32.1887C32.3184 32.589 32.4655 32.8164 32.9446 32.7302ZM14.6453 32.8391C18.746 41.3407 19.2784 48.8626 12.2014 54.8202C11.6238 55.4527 12.0213 56.4754 12.8658 56.4754L19.9539 56.9825C21.4361 57.0924 22.231 56.6867 23.3265 55.702C29.7468 50.285 30.4532 43.6582 26.1739 34.3243C25.9326 33.7643 25.6253 33.5152 25.1249 33.4053L16.8358 31.8329C16.3775 32.0597 15.7719 32.19 15.2318 32.0892C14.7153 31.9959 14.4913 32.2395 14.6453 32.8391Z" fill="white"/>
</svg>
